<svg xmlns="http://www.w3.org/2000/svg" xmlns:xlink="http://www.w3.org/1999/xlink" width="500" zoomAndPan="magnify" viewBox="0 0 375 374.999991" height="500" preserveAspectRatio="xMidYMid meet" version="1.0"><defs><clipPath id="7ec6258a04"><path d="M 0 0.0585938 L 321.4375 0.0585938 L 321.4375 373.070312 L 0 373.070312 Z M 0 0.0585938 " clip-rule="nonzero"/></clipPath><clipPath id="f0054cdca9"><path d="M 260.027344 119.4375 L 375 119.4375 L 375 176.804688 L 260.027344 176.804688 Z M 260.027344 119.4375 " clip-rule="nonzero"/></clipPath></defs><path fill="#ffffff" d="M 277.121094 305.628906 C 275.519531 310.425781 272.855469 315.277344 269.808594 318.9375 C 267.210938 322.058594 265.304688 323.179688 264.40625 323.511719 C 264.046875 322.53125 263.679688 320.648438 264.003906 318.5 C 264.382812 315.972656 265.550781 313.984375 267.472656 312.59375 C 272.101562 309.242188 274.960938 305.242188 276.851562 302.597656 C 277.121094 302.222656 277.414062 301.8125 277.691406 301.433594 C 277.8125 302.347656 277.75 303.738281 277.121094 305.628906 Z M 276.933594 293.707031 C 274.605469 294.199219 273.1875 296.183594 271.394531 298.695312 C 269.5625 301.257812 267.28125 304.453125 263.539062 307.160156 C 258.929688 310.496094 256.589844 316.128906 257.285156 322.230469 C 257.496094 324.082031 258.320312 328.535156 261.414062 329.839844 C 262.042969 330.105469 262.878906 330.332031 263.902344 330.332031 C 264.914062 330.332031 266.105469 330.113281 267.46875 329.496094 C 270.351562 328.195312 273.558594 325.269531 276.507812 321.253906 C 279.429688 317.277344 281.910156 312.480469 283.484375 307.75 C 285.117188 302.855469 284.65625 298.324219 282.253906 295.632812 C 280.824219 294.027344 278.835938 293.308594 276.933594 293.707031 " fill-opacity="1" fill-rule="nonzero"/><g clip-path="url(#7ec6258a04)"><path fill="#ffffff" d="M 197.632812 366.363281 C 168.886719 366.363281 142.605469 356.683594 121.5625 338.363281 C 120.554688 335.242188 119.265625 332.246094 118.09375 329.515625 C 116.441406 325.671875 114.882812 322.039062 114.59375 319.25 C 113.976562 313.1875 113.867188 308.167969 113.769531 303.738281 C 113.582031 295.046875 113.445312 288.769531 109.40625 283.1875 C 105.007812 277.113281 100.566406 274.902344 96.273438 272.761719 C 92.207031 270.738281 88.371094 268.828125 84.097656 263.289062 C 84.09375 263.285156 84.09375 263.28125 84.089844 263.277344 C 82 260.589844 79.582031 256.847656 77.390625 252.925781 C 77.5 252.65625 77.601562 252.378906 77.6875 252.097656 L 159.855469 252.097656 C 160.089844 252.148438 160.335938 252.179688 160.582031 252.179688 C 174.328125 252.269531 181.394531 263.398438 184.382812 270.023438 C 188.488281 279.125 189.304688 288.632812 190.171875 298.703125 C 190.570312 303.320312 190.980469 308.09375 191.730469 312.855469 C 192.546875 318.03125 193.605469 322.246094 194.972656 325.746094 C 196.984375 330.882812 199.730469 334.589844 203.132812 336.769531 C 205.558594 338.316406 208.265625 339.09375 211.230469 339.09375 C 212.992188 339.09375 214.847656 338.816406 216.785156 338.269531 C 223.558594 336.34375 228.539062 332.539062 232.007812 326.632812 C 232.847656 325.199219 233.605469 323.730469 234.339844 322.3125 C 235.738281 319.601562 237.0625 317.039062 238.839844 314.914062 C 240.417969 313.027344 242.40625 311.425781 244.511719 309.730469 C 245.980469 308.546875 247.503906 307.320312 248.9375 305.945312 C 251.195312 303.785156 252.824219 301.433594 253.917969 298.757812 C 254.859375 296.460938 255.429688 293.871094 255.714844 290.617188 C 255.855469 289.011719 255.859375 287.347656 255.863281 285.738281 C 255.875 282.515625 255.882812 279.183594 257.027344 276.746094 C 259.261719 271.976562 264.253906 266.699219 269.082031 261.597656 C 272.203125 258.296875 275.171875 255.15625 277.488281 252.097656 L 314.550781 252.097656 C 313.113281 315.347656 261.21875 366.363281 197.632812 366.363281 Z M 69.984375 259.550781 C 70.972656 259.277344 71.90625 258.871094 72.765625 258.351562 C 74.777344 261.777344 76.863281 264.914062 78.792969 267.390625 C 84.003906 274.148438 88.933594 276.605469 93.28125 278.769531 C 97.175781 280.707031 100.539062 282.382812 103.972656 287.121094 C 106.785156 291.003906 106.890625 295.851562 107.0625 303.882812 C 107.160156 308.4375 107.273438 313.601562 107.921875 319.933594 C 108.3125 323.746094 110.070312 327.835938 111.929688 332.164062 C 113.183594 335.085938 114.457031 338.050781 115.375 341.011719 C 115.410156 341.167969 115.457031 341.320312 115.515625 341.472656 C 116.230469 343.875 116.695312 346.277344 116.714844 348.65625 C 89.558594 326.503906 72.722656 294.460938 69.984375 259.550781 Z M 66.980469 253.253906 C 64.496094 253.253906 62.472656 251.230469 62.472656 248.742188 C 62.472656 246.253906 64.496094 244.234375 66.980469 244.234375 C 69.46875 244.234375 71.492188 246.253906 71.492188 248.742188 C 71.492188 251.230469 69.46875 253.253906 66.980469 253.253906 Z M 47.105469 228.726562 C 46.289062 227.171875 38.707031 212.445312 33.863281 193.230469 C 32.660156 188.445312 32.128906 183.535156 31.613281 178.789062 C 30.394531 167.515625 29.136719 155.855469 19.035156 144.808594 C 18.742188 144.488281 18.433594 144.1875 18.113281 143.902344 C 15.929688 120.75 20.972656 98.257812 33.113281 77.019531 C 34.480469 80.789062 35.769531 84.710938 36.089844 89.066406 C 36.378906 93.007812 35.453125 97.730469 34.558594 102.300781 C 33.769531 106.328125 33.023438 110.128906 33.027344 113.578125 C 33.03125 116.0625 33.566406 119.429688 34.429688 122.363281 C 35.644531 126.492188 37.347656 129.402344 39.496094 131.015625 C 41.339844 132.402344 43.539062 132.820312 45.691406 132.199219 C 49.34375 131.144531 50.5 126.886719 50.878906 125.488281 C 51.574219 122.941406 51.972656 119.832031 52.402344 116.546875 C 52.976562 112.105469 53.570312 107.515625 54.863281 104.507812 C 56.398438 100.945312 60.703125 97.71875 65.261719 94.300781 C 70.898438 90.074219 77.289062 85.285156 80.867188 78.199219 C 82.730469 74.5 85.46875 71.675781 88.785156 70.035156 C 91.464844 68.707031 94.488281 68.183594 97.074219 68.59375 C 99.265625 68.945312 100.402344 69.855469 100.476562 70.363281 C 100.800781 72.492188 99.597656 73.613281 96.070312 76.277344 C 92.683594 78.832031 88.472656 82.011719 87.046875 87.964844 L 86.957031 88.34375 C 86.371094 90.792969 85.574219 94.148438 84.269531 96.976562 C 83.433594 98.796875 82.082031 101.023438 80.417969 101.304688 C 78.496094 101.625 77.605469 101.265625 76.253906 100.722656 C 74.675781 100.085938 72.511719 99.210938 69.191406 99.8125 C 66.648438 100.273438 64.34375 102.128906 62.339844 105.328125 C 60.796875 107.792969 59.425781 111.035156 58.261719 114.960938 C 56.03125 122.484375 54.851562 131.714844 55.101562 139.660156 C 55.226562 147.054688 56.429688 154.054688 58.679688 160.457031 C 61.039062 167.167969 64.507812 173.113281 68.996094 178.132812 C 73.070312 182.6875 78.851562 186.648438 84.859375 188.992188 C 88.816406 190.535156 92.652344 191.308594 96.25 191.308594 C 96.425781 191.308594 96.601562 191.304688 96.773438 191.300781 L 69.332031 237.769531 C 68.574219 237.609375 67.789062 237.523438 66.980469 237.523438 C 64.472656 237.523438 62.152344 238.351562 60.28125 239.746094 C 55.648438 236.367188 51.238281 232.679688 47.105469 228.726562 Z M 6.933594 145.882812 C 7.566406 146.015625 8.3125 146.214844 9.140625 146.5 C 11.289062 147.238281 13.136719 148.296875 14.082031 149.335938 C 22.703125 158.761719 23.792969 168.839844 24.945312 179.511719 C 25.484375 184.484375 26.039062 189.628906 27.359375 194.871094 C 29.054688 201.597656 31.046875 207.753906 32.988281 213.035156 C 18.140625 193.742188 9.074219 170.542969 6.933594 145.882812 Z M 41.074219 47.5 C 41.140625 47.441406 41.203125 47.378906 41.261719 47.3125 C 77.8125 8.191406 135.898438 -3.789062 184.804688 16.960938 C 182.457031 17.753906 179.953125 18.378906 177.363281 18.878906 C 176.894531 18.867188 176.433594 18.957031 176.011719 19.128906 C 170.882812 20.03125 165.484375 20.511719 160.410156 20.957031 C 153.566406 21.5625 147.101562 22.132812 142.25 23.667969 C 139.316406 24.597656 137.125 25.824219 135.546875 27.421875 C 133.59375 29.398438 132.632812 31.867188 132.691406 34.761719 C 132.691406 34.835938 132.695312 34.902344 132.699219 34.972656 C 132.90625 37.46875 134.472656 39.347656 137.003906 40.136719 C 138.550781 40.617188 140.273438 40.675781 142.101562 40.738281 C 144.558594 40.820312 147.34375 40.914062 148.46875 42.183594 C 149.453125 43.292969 149.488281 45.539062 149.34375 47.234375 C 149.09375 50.183594 148.667969 55.128906 145.082031 60.261719 C 140.773438 66.429688 133.960938 66.179688 127.953125 65.957031 C 125.648438 65.871094 123.46875 65.792969 121.617188 66.125 C 117.964844 66.789062 116.589844 68.933594 116.078125 70.617188 C 115.785156 71.574219 115.558594 73.507812 117.3125 75.710938 C 118.136719 76.746094 119.328125 77.757812 120.855469 78.722656 C 125.101562 81.40625 131.015625 83.234375 136.679688 83.609375 C 137.425781 83.664062 138.164062 83.6875 138.890625 83.6875 C 145.375 83.6875 150.957031 81.707031 155.140625 77.898438 C 158.769531 74.59375 160.5625 71.070312 162.007812 68.242188 C 163.515625 65.277344 164.207031 64.125 165.480469 63.796875 C 166.371094 63.566406 167.953125 63.160156 170.128906 67.09375 L 101.179688 183.839844 C 96.273438 185.46875 90.976562 184.175781 87.296875 182.738281 C 82.3125 180.796875 77.34375 177.402344 73.996094 173.660156 C 66.246094 164.996094 62.03125 153.191406 61.808594 139.523438 C 61.808594 139.503906 61.808594 139.488281 61.808594 139.46875 C 61.574219 132.199219 62.652344 123.75 64.695312 116.867188 C 67.101562 108.742188 69.675781 106.542969 70.390625 106.414062 C 71.800781 106.160156 72.449219 106.421875 73.746094 106.941406 C 75.429688 107.621094 77.738281 108.554688 81.523438 107.917969 C 89.503906 106.585938 92.09375 95.730469 93.484375 89.898438 L 93.574219 89.523438 C 94.4375 85.914062 97.191406 83.835938 100.109375 81.632812 C 101.898438 80.285156 103.75 78.886719 105.113281 77.101562 C 106.871094 74.808594 107.542969 72.199219 107.109375 69.351562 C 106.535156 65.589844 103.09375 62.757812 98.128906 61.96875 C 94.140625 61.332031 89.761719 62.0625 85.808594 64.023438 C 81.179688 66.316406 77.402344 70.171875 74.875 75.175781 C 72.007812 80.863281 66.53125 84.964844 61.234375 88.933594 C 55.941406 92.902344 50.941406 96.648438 48.703125 101.855469 C 47.035156 105.722656 46.382812 110.785156 45.746094 115.683594 C 45.40625 118.316406 45.085938 120.804688 44.636719 122.800781 C 44.226562 124.609375 43.839844 125.410156 43.640625 125.734375 C 43.273438 125.519531 42.21875 124.480469 41.191406 121.496094 C 40.195312 118.585938 39.738281 115.347656 39.738281 113.570312 C 39.734375 110.777344 40.417969 107.285156 41.140625 103.589844 C 42.121094 98.585938 43.136719 93.414062 42.78125 88.578125 C 42.351562 82.6875 40.488281 77.628906 38.84375 73.167969 C 38.230469 71.5 37.648438 69.917969 37.160156 68.378906 C 37.136719 68.28125 37.105469 68.1875 37.074219 68.097656 C 35.035156 61.550781 34.765625 55.761719 41.074219 47.5 Z M 190.753906 32.175781 L 173.882812 60.738281 C 173.328125 60.085938 172.746094 59.519531 172.140625 59.039062 C 169.726562 57.121094 166.84375 56.519531 163.808594 57.300781 C 159.480469 58.414062 157.726562 61.863281 156.027344 65.195312 C 154.710938 67.785156 153.347656 70.457031 150.625 72.9375 C 145.476562 77.621094 138.191406 77.234375 134.304688 76.585938 C 129.367188 75.761719 125.675781 73.941406 123.800781 72.621094 C 124.875 72.558594 126.25 72.605469 127.707031 72.660156 C 134.265625 72.902344 144.179688 73.265625 150.582031 64.105469 C 155.199219 57.492188 155.738281 51.191406 156.027344 47.804688 C 156.40625 43.378906 155.578125 40.082031 153.488281 37.730469 C 150.449219 34.304688 145.753906 34.144531 142.324219 34.03125 C 141.484375 34.003906 140.207031 33.960938 139.433594 33.832031 C 139.59375 32.75 140.410156 31.289062 144.273438 30.066406 C 148.425781 28.75 154.535156 28.210938 161 27.640625 C 166.234375 27.179688 171.789062 26.6875 177.179688 25.738281 C 179.824219 26.726562 185.609375 29.40625 190.753906 32.175781 Z M 268.753906 252.097656 C 267.339844 253.675781 265.792969 255.308594 264.207031 256.988281 C 259.015625 262.476562 253.648438 268.148438 250.953125 273.894531 C 249.179688 277.679688 249.167969 281.949219 249.15625 285.71875 C 249.152344 287.257812 249.148438 288.710938 249.03125 290.035156 C 248.578125 295.234375 247.296875 298.234375 244.300781 301.097656 C 243.070312 302.273438 241.726562 303.359375 240.300781 304.503906 C 238.039062 306.328125 235.695312 308.21875 233.695312 310.605469 C 231.441406 313.300781 229.882812 316.316406 228.378906 319.234375 C 227.652344 320.636719 226.972656 321.957031 226.222656 323.234375 C 223.597656 327.699219 220.125 330.34375 214.953125 331.8125 C 211.640625 332.757812 208.953125 332.527344 206.746094 331.117188 C 204.5625 329.71875 202.703125 327.089844 201.222656 323.300781 C 200.035156 320.261719 199.097656 316.5 198.359375 311.8125 C 197.644531 307.28125 197.242188 302.628906 196.855469 298.128906 C 195.980469 287.941406 195.074219 277.40625 190.5 267.265625 C 187.6875 261.035156 183.769531 255.792969 179.164062 252.097656 Z M 317.9375 245.386719 L 77.6875 245.386719 C 77.179688 243.761719 76.304688 242.292969 75.167969 241.078125 L 106.351562 188.277344 C 106.355469 188.269531 106.363281 188.261719 106.367188 188.253906 L 176.816406 68.964844 C 176.820312 68.957031 176.824219 68.953125 176.828125 68.945312 L 198.273438 32.628906 C 198.277344 32.625 198.28125 32.617188 198.28125 32.613281 C 198.285156 32.609375 198.289062 32.609375 198.289062 32.605469 C 198.300781 32.582031 198.3125 32.5625 198.324219 32.539062 C 198.339844 32.515625 198.355469 32.488281 198.367188 32.464844 C 198.378906 32.4375 198.390625 32.414062 198.402344 32.390625 C 198.417969 32.363281 198.429688 32.335938 198.441406 32.3125 C 198.453125 32.285156 198.460938 32.261719 198.472656 32.234375 C 198.484375 32.207031 198.496094 32.179688 198.507812 32.15625 C 198.515625 32.128906 198.527344 32.105469 198.535156 32.078125 C 198.546875 32.050781 198.554688 32.027344 198.566406 32 C 198.574219 31.972656 198.582031 31.945312 198.589844 31.917969 C 198.597656 31.890625 198.605469 31.867188 198.613281 31.839844 C 198.621094 31.8125 198.628906 31.785156 198.636719 31.757812 C 198.644531 31.730469 198.648438 31.707031 198.65625 31.679688 C 198.660156 31.652344 198.667969 31.625 198.671875 31.597656 C 198.679688 31.570312 198.683594 31.542969 198.6875 31.519531 C 198.695312 31.492188 198.699219 31.460938 198.703125 31.433594 C 198.707031 31.410156 198.710938 31.382812 198.714844 31.359375 C 198.71875 31.328125 198.71875 31.300781 198.722656 31.269531 C 198.726562 31.246094 198.730469 31.21875 198.730469 31.195312 C 198.734375 31.164062 198.734375 31.136719 198.738281 31.105469 C 198.738281 31.082031 198.738281 31.058594 198.738281 31.03125 C 198.742188 31.003906 198.742188 30.972656 198.742188 30.945312 C 198.742188 30.921875 198.742188 30.894531 198.742188 30.871094 C 198.742188 30.84375 198.738281 30.8125 198.738281 30.785156 C 198.738281 30.757812 198.738281 30.734375 198.734375 30.707031 C 198.734375 30.679688 198.730469 30.652344 198.726562 30.621094 C 198.722656 30.597656 198.722656 30.574219 198.71875 30.546875 C 198.71875 30.519531 198.710938 30.492188 198.710938 30.460938 C 198.707031 30.4375 198.703125 30.414062 198.699219 30.386719 C 198.695312 30.359375 198.6875 30.332031 198.683594 30.304688 C 198.679688 30.28125 198.671875 30.253906 198.667969 30.230469 C 198.664062 30.203125 198.65625 30.175781 198.648438 30.148438 C 198.644531 30.125 198.640625 30.097656 198.632812 30.074219 C 198.625 30.046875 198.617188 30.019531 198.609375 29.992188 C 198.601562 29.96875 198.597656 29.945312 198.589844 29.917969 C 198.578125 29.890625 198.570312 29.867188 198.5625 29.839844 C 198.550781 29.816406 198.546875 29.789062 198.535156 29.765625 C 198.527344 29.738281 198.515625 29.714844 198.507812 29.6875 C 198.496094 29.664062 198.488281 29.640625 198.476562 29.613281 C 198.464844 29.589844 198.457031 29.566406 198.441406 29.539062 C 198.433594 29.515625 198.421875 29.492188 198.410156 29.46875 C 198.398438 29.445312 198.386719 29.417969 198.375 29.394531 C 198.359375 29.371094 198.351562 29.347656 198.335938 29.324219 C 198.324219 29.300781 198.308594 29.277344 198.296875 29.253906 C 198.28125 29.230469 198.269531 29.207031 198.257812 29.183594 C 198.242188 29.160156 198.226562 29.136719 198.210938 29.113281 C 198.199219 29.089844 198.183594 29.070312 198.167969 29.046875 C 198.152344 29.023438 198.136719 29 198.121094 28.980469 C 198.105469 28.957031 198.089844 28.933594 198.074219 28.914062 C 198.058594 28.890625 198.039062 28.871094 198.023438 28.847656 C 198.007812 28.824219 197.992188 28.804688 197.972656 28.785156 C 197.957031 28.761719 197.933594 28.742188 197.914062 28.71875 C 197.898438 28.699219 197.882812 28.679688 197.867188 28.660156 C 197.847656 28.640625 197.824219 28.617188 197.804688 28.59375 C 197.789062 28.578125 197.769531 28.558594 197.753906 28.542969 C 197.730469 28.519531 197.707031 28.5 197.683594 28.476562 C 197.667969 28.460938 197.648438 28.445312 197.632812 28.429688 C 197.609375 28.40625 197.582031 28.386719 197.558594 28.367188 C 197.542969 28.351562 197.523438 28.335938 197.503906 28.320312 C 197.480469 28.296875 197.453125 28.28125 197.425781 28.261719 C 197.40625 28.246094 197.390625 28.230469 197.371094 28.214844 C 197.34375 28.195312 197.316406 28.179688 197.289062 28.160156 C 197.269531 28.144531 197.25 28.132812 197.230469 28.117188 C 197.203125 28.101562 197.175781 28.085938 197.148438 28.066406 C 197.128906 28.054688 197.113281 28.042969 197.09375 28.035156 C 197.089844 28.03125 197.085938 28.027344 197.082031 28.027344 C 197.078125 28.023438 197.074219 28.023438 197.070312 28.019531 C 194.359375 26.449219 190.925781 24.65625 187.667969 23.074219 C 190.117188 22.199219 192.441406 21.144531 194.589844 19.847656 C 196.046875 18.96875 196.59375 17.15625 195.929688 15.632812 C 195.917969 15.609375 195.90625 15.582031 195.890625 15.554688 C 195.890625 15.550781 195.886719 15.542969 195.886719 15.539062 C 195.574219 14.875 195.042969 14.304688 194.332031 13.949219 C 181.148438 7.4375 167.097656 3.160156 152.578125 1.230469 C 138.476562 -0.644531 124.207031 -0.269531 110.164062 2.347656 C 96.195312 4.945312 82.796875 9.691406 70.339844 16.457031 C 57.824219 23.253906 46.546875 31.9375 36.800781 42.269531 C 36.5625 42.441406 36.34375 42.652344 36.152344 42.894531 C 28.054688 53.21875 28.210938 61.308594 30.269531 68.722656 C 29.59375 69.789062 28.933594 70.871094 28.292969 71.953125 C 21.46875 83.507812 16.597656 95.503906 13.808594 107.605469 C 11.378906 118.15625 10.46875 129.058594 11.097656 140.078125 C 10.949219 140.027344 10.808594 139.984375 10.671875 139.941406 C 8.640625 139.300781 4.871094 138.375 2.476562 139.394531 C 0.871094 140.078125 -0.0976562 141.59375 0.0078125 143.261719 C 1.074219 160.097656 5.214844 176.402344 12.308594 191.710938 C 18.546875 205.167969 26.832031 217.335938 36.984375 227.976562 C 37.089844 228.089844 37.175781 228.183594 37.269531 228.289062 C 43.0625 234.480469 49.457031 240.160156 56.34375 245.179688 C 55.96875 246.300781 55.761719 247.496094 55.761719 248.742188 C 55.761719 253.617188 58.886719 257.773438 63.238281 259.316406 C 63.914062 268.585938 65.542969 277.773438 68.09375 286.65625 C 70.804688 296.101562 74.570312 305.269531 79.289062 313.914062 C 83.933594 322.417969 89.523438 330.449219 95.898438 337.78125 C 102.246094 345.085938 109.398438 351.71875 117.148438 357.503906 C 117.753906 357.953125 118.457031 358.167969 119.152344 358.167969 C 120.175781 358.167969 121.183594 357.703125 121.84375 356.820312 C 121.847656 356.816406 121.851562 356.808594 121.855469 356.800781 C 121.882812 356.765625 121.910156 356.726562 121.9375 356.6875 C 121.941406 356.679688 121.945312 356.675781 121.949219 356.671875 C 122.128906 356.40625 122.273438 356.117188 122.375 355.796875 C 123.101562 353.484375 123.449219 351.074219 123.417969 348.519531 C 132.589844 355.492188 142.648438 361.070312 153.417969 365.144531 C 167.324219 370.402344 182.203125 373.070312 197.632812 373.070312 C 214.324219 373.070312 230.519531 369.800781 245.769531 363.351562 C 253.097656 360.25 260.164062 356.414062 266.773438 351.949219 C 273.320312 347.523438 279.476562 342.445312 285.074219 336.847656 C 290.667969 331.253906 295.746094 325.097656 300.171875 318.546875 C 304.636719 311.9375 308.472656 304.867188 311.574219 297.539062 C 318.023438 282.292969 321.292969 266.09375 321.292969 249.402344 C 321.292969 249.289062 321.289062 249.179688 321.277344 249.070312 C 321.289062 248.960938 321.292969 248.851562 321.292969 248.742188 C 321.292969 246.890625 319.792969 245.386719 317.9375 245.386719 " fill-opacity="1" fill-rule="nonzero"/></g><g clip-path="url(#f0054cdca9)"><path fill="#ffffff" d="M 374.765625 124.597656 C 374.757812 123.242188 374.222656 121.96875 373.257812 121.015625 C 372.292969 120.0625 371.011719 119.539062 369.660156 119.546875 L 345.84375 119.667969 C 344.488281 119.675781 343.214844 120.210938 342.261719 121.175781 C 341.304688 122.136719 340.785156 123.417969 340.789062 124.773438 L 340.796875 126.296875 L 308.113281 126.464844 C 307.277344 126.46875 306.496094 126.796875 305.90625 127.390625 C 305.320312 127.984375 304.996094 128.769531 305 129.605469 C 305.007812 131.125 306.097656 132.414062 307.59375 132.671875 C 307.773438 132.703125 307.960938 132.71875 308.144531 132.71875 L 340.828125 132.550781 L 340.921875 150.226562 C 340.929688 151.941406 342.332031 153.335938 344.046875 153.335938 C 344.054688 153.335938 344.058594 153.335938 344.066406 153.335938 C 344.902344 153.332031 345.683594 153 346.269531 152.410156 C 346.859375 151.8125 347.179688 151.027344 347.179688 150.191406 L 347.050781 125.917969 L 368.515625 125.808594 L 368.742188 170.394531 L 347.28125 170.503906 L 347.238281 161.9375 C 347.234375 161.101562 346.902344 160.320312 346.308594 159.730469 C 345.71875 159.144531 344.941406 158.824219 344.109375 158.824219 C 344.105469 158.824219 344.097656 158.824219 344.09375 158.824219 C 342.367188 158.835938 340.972656 160.246094 340.980469 161.96875 L 340.992188 163.9375 L 263.261719 164.335938 C 261.535156 164.34375 260.140625 165.753906 260.148438 167.480469 C 260.15625 169 261.246094 170.289062 262.742188 170.546875 C 262.921875 170.578125 263.113281 170.589844 263.292969 170.59375 L 341.023438 170.191406 L 341.03125 171.714844 C 341.039062 173.070312 341.574219 174.34375 342.539062 175.296875 C 343.28125 176.03125 344.214844 176.515625 345.238281 176.691406 C 345.523438 176.742188 345.816406 176.765625 346.113281 176.765625 C 346.121094 176.765625 346.128906 176.765625 346.136719 176.765625 L 369.953125 176.644531 C 371.308594 176.636719 372.582031 176.101562 373.535156 175.136719 C 374.492188 174.175781 375.011719 172.894531 375.007812 171.539062 L 374.765625 124.597656 " fill-opacity="1" fill-rule="nonzero"/></g><path fill="#ffffff" d="M 162.03125 157.449219 L 161.949219 140.878906 L 167.109375 140.851562 L 167.195312 157.421875 Z M 192.050781 134.46875 C 190.546875 134.476562 189.136719 135.066406 188.082031 136.132812 C 187.28125 136.941406 186.75 137.964844 186.546875 139.070312 L 173.355469 139.136719 C 173.328125 137.925781 172.835938 136.792969 171.972656 135.9375 C 171.09375 135.066406 169.925781 134.585938 168.6875 134.585938 C 168.679688 134.585938 168.671875 134.585938 168.664062 134.585938 L 160.328125 134.628906 C 157.753906 134.644531 155.667969 136.75 155.683594 139.324219 L 155.785156 159.066406 C 155.789062 160.3125 156.285156 161.484375 157.167969 162.359375 C 157.851562 163.039062 158.710938 163.480469 159.652344 163.640625 C 159.914062 163.6875 160.183594 163.710938 160.453125 163.710938 C 160.460938 163.710938 160.46875 163.710938 160.480469 163.710938 L 168.816406 163.667969 C 170.0625 163.664062 171.230469 163.171875 172.109375 162.285156 C 172.964844 161.417969 173.441406 160.28125 173.460938 159.070312 L 186.652344 159.003906 C 186.863281 160.105469 187.40625 161.121094 188.214844 161.921875 C 189.039062 162.734375 190.070312 163.269531 191.203125 163.464844 C 191.53125 163.523438 191.863281 163.550781 192.203125 163.546875 L 228.476562 163.363281 C 230.203125 163.351562 231.597656 161.941406 231.589844 160.21875 C 231.582031 158.5 230.179688 157.105469 228.460938 157.105469 C 228.457031 157.105469 228.449219 157.105469 228.445312 157.105469 L 192.800781 157.289062 L 192.785156 154.730469 C 192.777344 153.007812 191.375 151.617188 189.65625 151.617188 C 189.652344 151.617188 189.644531 151.617188 189.640625 151.617188 C 188.703125 151.621094 187.839844 152.035156 187.253906 152.746094 L 173.429688 152.816406 L 173.390625 145.394531 L 186.480469 145.324219 L 186.492188 147.5625 C 186.5 149.082031 187.589844 150.371094 189.085938 150.628906 C 189.265625 150.660156 189.453125 150.675781 189.636719 150.675781 C 191.359375 150.664062 192.757812 149.253906 192.75 147.53125 L 192.714844 140.71875 L 236.371094 140.496094 C 236.394531 140.53125 236.417969 140.566406 236.441406 140.601562 L 236.457031 140.621094 C 236.496094 140.671875 236.535156 140.722656 236.574219 140.769531 L 236.59375 140.792969 C 236.632812 140.84375 236.679688 140.890625 236.726562 140.941406 L 236.75 140.964844 C 236.796875 141.011719 236.84375 141.058594 236.894531 141.101562 L 236.910156 141.117188 C 236.957031 141.160156 237.007812 141.199219 237.054688 141.234375 L 237.074219 141.253906 C 237.128906 141.292969 237.183594 141.332031 237.234375 141.367188 L 237.265625 141.390625 C 237.324219 141.425781 237.378906 141.460938 237.441406 141.496094 L 237.457031 141.503906 C 237.511719 141.535156 237.570312 141.566406 237.628906 141.59375 L 237.648438 141.601562 C 237.710938 141.632812 237.773438 141.660156 237.839844 141.683594 L 237.871094 141.695312 C 237.933594 141.71875 237.996094 141.742188 238.0625 141.761719 L 238.085938 141.769531 C 238.148438 141.789062 238.210938 141.804688 238.277344 141.820312 L 238.296875 141.824219 C 238.347656 141.835938 238.394531 141.847656 238.441406 141.851562 C 238.460938 141.855469 238.480469 141.859375 238.496094 141.863281 L 238.539062 141.867188 C 238.605469 141.878906 238.675781 141.886719 238.746094 141.890625 L 238.777344 141.894531 C 238.855469 141.898438 238.925781 141.898438 238.996094 141.898438 C 240.71875 141.890625 242.117188 140.480469 242.109375 138.757812 L 242.078125 133.011719 C 243.542969 132.742188 244.652344 131.457031 244.644531 129.917969 C 244.632812 128.199219 243.230469 126.804688 241.515625 126.804688 C 241.507812 126.804688 241.503906 126.804688 241.5 126.804688 C 238.351562 126.820312 235.800781 129.394531 235.820312 132.542969 L 235.828125 134.242188 L 192.050781 134.46875 " fill-opacity="1" fill-rule="nonzero"/><path fill="#ffffff" d="M 279.148438 133.609375 C 279.148438 133.574219 279.152344 133.542969 279.152344 133.503906 L 279.1875 124.078125 C 279.28125 122.214844 280.8125 120.773438 282.6875 120.789062 C 283.609375 120.796875 284.476562 121.167969 285.125 121.832031 C 285.777344 122.496094 286.128906 123.371094 286.121094 124.296875 C 286.117188 124.363281 286.121094 124.425781 286.125 124.492188 L 286.089844 133.503906 L 286.089844 133.601562 C 286.089844 133.640625 286.089844 133.683594 286.089844 133.722656 C 286.089844 133.769531 286.085938 133.816406 286.085938 133.863281 C 286.085938 134.015625 286.089844 134.164062 286.09375 134.328125 C 286.085938 134.421875 286.078125 134.515625 286.078125 134.617188 C 286.070312 135.539062 285.699219 136.40625 285.035156 137.054688 C 284.371094 137.707031 283.496094 138.058594 282.574219 138.050781 C 281.648438 138.039062 280.78125 137.667969 280.132812 137.007812 C 279.484375 136.34375 279.128906 135.46875 279.140625 134.539062 C 279.140625 134.46875 279.140625 134.394531 279.132812 134.324219 C 279.140625 134.136719 279.148438 133.9375 279.148438 133.71875 C 279.148438 133.679688 279.148438 133.644531 279.148438 133.609375 Z M 292.300781 133.636719 L 292.320312 127.964844 C 292.347656 127.808594 292.363281 127.652344 292.363281 127.496094 C 292.371094 126.8125 292.628906 126.183594 293.097656 125.726562 C 293.542969 125.289062 294.140625 125.050781 294.78125 125.0625 C 295.433594 125.070312 296.046875 125.332031 296.511719 125.800781 C 296.972656 126.269531 297.222656 126.890625 297.214844 127.554688 L 297.214844 133.988281 C 297.199219 135.3125 296.105469 136.398438 294.78125 136.414062 C 294.765625 136.414062 294.75 136.414062 294.730469 136.414062 C 294.074219 136.40625 293.460938 136.144531 293 135.675781 C 292.539062 135.203125 292.289062 134.585938 292.296875 133.929688 C 292.296875 133.882812 292.296875 133.835938 292.296875 133.789062 C 292.296875 133.738281 292.300781 133.6875 292.300781 133.636719 Z M 262.113281 117.15625 C 260.460938 115.886719 258.4375 115.1875 256.332031 115.164062 C 253.75 115.136719 251.3125 116.121094 249.460938 117.929688 C 247.613281 119.742188 246.578125 122.164062 246.550781 124.746094 L 246.492188 132.023438 C 246.484375 132.855469 246.800781 133.636719 247.378906 134.226562 C 247.960938 134.824219 248.734375 135.152344 249.566406 135.164062 C 249.578125 135.164062 249.585938 135.164062 249.597656 135.164062 C 250.417969 135.164062 251.1875 134.847656 251.773438 134.273438 C 252.363281 133.695312 252.695312 132.917969 252.703125 132.085938 L 252.761719 124.808594 C 252.78125 122.898438 254.355469 121.351562 256.265625 121.375 C 258.179688 121.394531 259.71875 122.96875 259.699219 124.886719 L 259.695312 131.113281 C 259.679688 132.804688 261.039062 134.210938 262.730469 134.25 C 262.753906 134.25 262.777344 134.25 262.800781 134.25 C 264.480469 134.25 265.867188 132.902344 265.90625 131.210938 L 265.90625 131.191406 C 265.90625 130.132812 265.90625 124.886719 265.898438 124.375 C 265.914062 123.578125 266.132812 122.390625 266.707031 121.4375 C 267.339844 120.378906 268.265625 119.839844 269.453125 119.828125 C 269.484375 119.828125 269.515625 119.828125 269.546875 119.828125 C 270.449219 119.835938 271.300781 120.191406 271.945312 120.828125 L 271.984375 120.867188 C 272.636719 121.53125 272.988281 122.40625 272.980469 123.339844 C 272.980469 123.425781 272.941406 133.054688 272.9375 133.625 C 272.730469 137.234375 274.445312 139.785156 274.578125 139.976562 C 276.363281 142.625 279.328125 144.226562 282.507812 144.257812 C 282.542969 144.261719 282.574219 144.261719 282.609375 144.261719 C 282.644531 144.261719 282.683594 144.261719 282.722656 144.257812 C 285.453125 144.226562 287.988281 143.074219 289.796875 141.0625 C 291.21875 142.058594 292.917969 142.605469 294.667969 142.625 C 294.695312 142.625 294.722656 142.625 294.753906 142.625 C 299.492188 142.625 303.375 138.792969 303.425781 134.035156 L 303.425781 127.59375 C 303.441406 126.015625 303.023438 124.46875 302.21875 123.113281 C 301.84375 122.480469 301.386719 121.894531 300.863281 121.375 C 299.265625 119.792969 297.070312 118.875 294.847656 118.851562 C 293.566406 118.835938 292.304688 119.105469 291.15625 119.636719 C 291.101562 119.53125 291.039062 119.425781 290.980469 119.324219 C 289.265625 116.429688 286.113281 114.613281 282.75 114.578125 C 280.535156 114.554688 278.335938 115.324219 276.597656 116.710938 C 274.800781 114.785156 272.246094 113.640625 269.609375 113.613281 C 268.011719 113.601562 266.515625 113.9375 265.171875 114.621094 C 263.992188 115.222656 262.960938 116.078125 262.113281 117.15625 " fill-opacity="1" fill-rule="nonzero"/><path fill="#ffffff" d="M 252.609375 72.675781 C 253.144531 74.082031 253.988281 75.308594 255.0625 76.253906 C 253.734375 76.777344 252.527344 77.644531 251.546875 78.785156 C 251.011719 77.378906 250.164062 76.148438 249.089844 75.203125 C 250.421875 74.683594 251.628906 73.816406 252.609375 72.675781 Z M 239.425781 76.230469 L 244.847656 79.34375 C 245.683594 79.828125 246.238281 80.847656 246.332031 82.078125 L 246.859375 88.949219 C 246.960938 90.28125 247.949219 91.375 249.257812 91.609375 L 249.28125 91.613281 C 249.449219 91.644531 249.617188 91.65625 249.78125 91.65625 C 250.910156 91.65625 251.964844 91 252.445312 89.949219 L 255.359375 83.605469 C 255.867188 82.507812 256.722656 81.746094 257.65625 81.582031 L 263.714844 80.496094 C 264.933594 80.277344 265.886719 79.304688 266.089844 78.085938 C 266.289062 76.863281 265.695312 75.636719 264.613281 75.039062 L 259.34375 72.136719 C 258.507812 71.671875 257.925781 70.625 257.828125 69.394531 L 257.277344 62.351562 C 257.171875 61.015625 256.175781 59.921875 254.855469 59.691406 L 254.84375 59.6875 C 253.519531 59.464844 252.21875 60.164062 251.671875 61.390625 L 248.824219 67.792969 C 248.320312 68.933594 247.40625 69.730469 246.449219 69.878906 L 240.445312 70.789062 C 239.214844 70.976562 238.234375 71.921875 238.003906 73.148438 C 237.773438 74.371094 238.347656 75.609375 239.425781 76.230469 " fill-opacity="1" fill-rule="nonzero"/><path fill="#ffffff" d="M 343.757812 216.203125 C 343.015625 214.898438 341.992188 213.808594 340.785156 213.039062 C 342.023438 212.320312 343.089844 211.28125 343.886719 210.003906 C 344.625 211.3125 345.644531 212.398438 346.851562 213.167969 C 345.617188 213.890625 344.554688 214.933594 343.757812 216.203125 Z M 356.105469 210.523438 L 350.460938 208.453125 C 349.5625 208.121094 348.828125 207.171875 348.546875 205.972656 L 346.933594 199.09375 C 346.625 197.789062 345.480469 196.859375 344.136719 196.832031 L 344.125 196.832031 C 342.785156 196.808594 341.601562 197.695312 341.25 198.992188 L 339.402344 205.75 C 339.074219 206.957031 338.296875 207.882812 337.371094 208.171875 L 331.578125 209.984375 C 330.386719 210.355469 329.558594 211.441406 329.519531 212.683594 C 329.476562 213.929688 330.230469 215.066406 331.390625 215.515625 L 337.222656 217.773438 C 338.121094 218.121094 338.824219 219.046875 339.101562 220.25 L 340.664062 226.960938 C 340.964844 228.265625 342.109375 229.195312 343.441406 229.230469 L 343.464844 229.230469 C 343.632812 229.234375 343.800781 229.222656 343.964844 229.195312 C 345.082031 229.027344 346.019531 228.21875 346.339844 227.105469 L 348.257812 220.394531 C 348.589844 219.230469 349.324219 218.351562 350.222656 218.046875 L 356.042969 216.054688 C 357.21875 215.652344 358.015625 214.550781 358.027344 213.3125 C 358.042969 212.074219 357.269531 210.953125 356.105469 210.523438 " fill-opacity="1" fill-rule="nonzero"/><path fill="#ffffff" d="M 177.21875 211.757812 C 176.601562 211.203125 175.914062 210.757812 175.175781 210.425781 C 175.703125 209.816406 176.136719 209.125 176.460938 208.363281 C 177.078125 208.914062 177.765625 209.363281 178.5 209.691406 C 177.976562 210.300781 177.546875 210.996094 177.21875 211.757812 Z M 182.152344 220.992188 L 182.378906 215.136719 C 182.414062 214.273438 182.753906 213.554688 183.292969 213.210938 L 187.644531 210.425781 C 188.6875 209.757812 189.203125 208.5 188.921875 207.292969 C 188.640625 206.085938 187.625 205.179688 186.394531 205.042969 L 181.378906 204.476562 C 180.746094 204.402344 180.085938 203.859375 179.691406 203.089844 L 177.007812 197.800781 C 176.402344 196.609375 175.070312 195.980469 173.761719 196.265625 L 173.746094 196.269531 C 172.4375 196.566406 171.496094 197.710938 171.460938 199.054688 L 171.300781 204.929688 C 171.28125 205.804688 170.910156 206.585938 170.355469 206.917969 L 165.992188 209.546875 C 164.925781 210.191406 164.378906 211.441406 164.632812 212.660156 C 164.886719 213.878906 165.890625 214.808594 167.125 214.96875 L 172.328125 215.648438 C 172.953125 215.730469 173.609375 216.273438 173.992188 217.035156 L 176.601562 222.199219 C 177.109375 223.199219 178.132812 223.808594 179.21875 223.808594 C 179.425781 223.808594 179.632812 223.789062 179.84375 223.742188 L 179.859375 223.734375 L 179.859375 223.738281 C 181.15625 223.445312 182.097656 222.316406 182.152344 220.992188 " fill-opacity="1" fill-rule="nonzero"/><path fill="#ffffff" d="M 259.390625 152.40625 L 255.496094 155.074219 C 253.882812 156.179688 252.660156 157.734375 251.964844 159.5625 C 251.882812 159.78125 251.828125 160.003906 251.792969 160.234375 L 250.824219 167.074219 C 250.707031 167.898438 250.917969 168.722656 251.417969 169.390625 C 251.921875 170.058594 252.652344 170.492188 253.480469 170.609375 C 255.1875 170.851562 256.773438 169.660156 257.019531 167.953125 L 257.929688 161.515625 C 258.179688 161 258.558594 160.558594 259.035156 160.234375 L 262.929688 157.5625 C 265.425781 155.851562 266.976562 153.019531 267.074219 149.996094 C 267.1875 146.621094 265.484375 143.40625 262.632812 141.601562 C 259.441406 139.585938 255.386719 139.429688 252.050781 141.199219 L 244.253906 145.332031 C 241.792969 146.636719 239.894531 148.789062 238.90625 151.394531 L 235.109375 161.429688 C 234.210938 163.804688 233.925781 166.390625 234.285156 168.90625 C 234.644531 171.421875 235.640625 173.824219 237.167969 175.847656 L 247.851562 190.09375 C 246.46875 190.238281 245.324219 191.292969 245.101562 192.734375 L 238.800781 234.769531 C 238.671875 235.613281 238.886719 236.449219 239.402344 237.125 C 239.917969 237.804688 240.664062 238.238281 241.507812 238.339844 C 241.644531 238.359375 241.777344 238.367188 241.910156 238.367188 C 243.441406 238.367188 244.757812 237.257812 244.992188 235.699219 L 250.828125 196.683594 L 286.859375 201.164062 L 281.851562 234.734375 C 281.726562 235.566406 281.933594 236.390625 282.4375 237.066406 C 282.941406 237.738281 283.671875 238.175781 284.503906 238.292969 C 286.203125 238.535156 287.789062 237.351562 288.042969 235.65625 L 293.523438 198.925781 C 293.652344 198.097656 293.433594 197.238281 292.929688 196.566406 C 292.589844 196.121094 292.136719 195.773438 291.621094 195.5625 L 292.128906 194.859375 C 295.042969 190.8125 297.046875 186.074219 297.917969 181.164062 L 298.65625 177.011719 C 298.804688 176.191406 298.621094 175.359375 298.140625 174.675781 C 297.664062 173.988281 296.949219 173.53125 296.125 173.386719 L 296.109375 173.382812 C 294.417969 173.089844 292.796875 174.226562 292.496094 175.917969 L 291.757812 180.070312 C 291.050781 184.0625 289.421875 187.910156 287.050781 191.203125 L 284.621094 194.578125 L 256.40625 191.074219 L 242.167969 172.089844 C 240.332031 169.652344 239.882812 166.496094 240.960938 163.644531 L 244.757812 153.609375 C 245.207031 152.429688 246.066406 151.453125 247.179688 150.863281 L 254.980469 146.726562 C 256.339844 146.007812 257.988281 146.070312 259.289062 146.890625 C 260.273438 147.515625 260.859375 148.625 260.824219 149.789062 C 260.789062 150.835938 260.253906 151.8125 259.390625 152.40625 " fill-opacity="1" fill-rule="nonzero"/></svg>