<svg xmlns="http://www.w3.org/2000/svg" xmlns:xlink="http://www.w3.org/1999/xlink" width="500" zoomAndPan="magnify" viewBox="0 0 375 374.999991" height="500" preserveAspectRatio="xMidYMid meet" version="1.0"><path fill="#ffffff" d="M 25.261719 257.125 C 78.519531 274.476562 90.980469 275.121094 147.585938 279.773438 L 151.09375 285.375 C 98.109375 288.207031 50.886719 291.457031 25.214844 257.125 Z M 221.1875 264.175781 L 222.105469 251.816406 L 226.496094 251.734375 C 226.328125 254.121094 225.867188 256.449219 225.113281 258.71875 C 223.375 263.757812 222.941406 263.113281 221.1875 264.175781 Z M 200.183594 262.90625 L 198.992188 261.570312 C 198.640625 260.71875 198.449219 259.832031 198.429688 258.914062 C 198.203125 254.90625 200.183594 250.671875 201.292969 247.082031 Z M 202.242188 245.601562 L 201.777344 234.996094 L 206.171875 235.480469 C 204.753906 237.859375 201.855469 242.238281 202.242188 245.601562 Z M 222.636719 244.765625 L 222.183594 235.640625 C 239.390625 235.335938 252.25 232.421875 267.796875 231.035156 C 269.679688 245.714844 235.335938 246.714844 222.636719 244.765625 Z M 107.539062 219.5625 C 107.378906 225.308594 108.910156 224.46875 114.105469 224.277344 C 140.617188 223.183594 163.871094 230.714844 188.820312 233.546875 C 184.652344 239.648438 186.101562 233.902344 178.695312 235.800781 C 171.613281 237.601562 174.367188 242.09375 166.914062 240.628906 C 137.140625 234.738281 133.921875 235.398438 104.480469 233 C 98.800781 232.535156 93.3125 232.917969 92.089844 227.996094 C 90.867188 223.070312 94.566406 218.046875 96.820312 215.90625 C 109.375 204.078125 136.640625 210.484375 154.570312 213.542969 C 174.542969 216.9375 196.820312 220.863281 217.339844 221.832031 C 228.25 222.402344 239.0625 221.605469 249.769531 219.449219 C 265.351562 216.230469 274.058594 210.066406 275.765625 209.792969 C 285.082031 208.292969 277.632812 221.992188 264.980469 224.742188 C 254.707031 226.855469 244.332031 228.175781 233.851562 228.703125 C 210.355469 229.957031 192.007812 227.898438 169.828125 223.875 C 157.46875 221.652344 116.8125 213.542969 107.539062 219.527344 Z M 235.042969 182.140625 C 234.914062 181.996094 234.65625 181.527344 234.625 181.671875 C 233.707031 184.539062 233.015625 165.464844 232.871094 164.515625 C 232.210938 156.695312 230.988281 155.9375 228.042969 149.804688 L 237.878906 150.015625 C 231.550781 161.84375 238.90625 176.347656 234.980469 182.203125 Z M 241.835938 166.769531 C 240.757812 148.035156 245.378906 149.066406 274.816406 149.402344 C 274.089844 149.675781 260.328125 163.890625 241.835938 166.769531 Z M 125.582031 153.296875 C 115.425781 169.972656 121.769531 171.695312 118.257812 177.875 C 110.484375 163.210938 130.734375 156.726562 114.476562 144.878906 L 113.996094 137.363281 L 128.285156 143.625 C 126.484375 148.339844 127.707031 149.835938 125.582031 153.28125 Z M 96.613281 125.308594 C 107.136719 122.492188 114.429688 122.75 125.066406 118.40625 C 139.777344 112.417969 148.710938 101.503906 181.542969 108.023438 C 193.875 110.46875 199.25 111.242188 199.121094 125.261719 C 199.121094 143.351562 164.644531 144.878906 148.777344 142.628906 C 139.367188 141.257812 130.394531 138.472656 121.863281 134.273438 C 117.746094 132.214844 115.136719 129.574219 110.421875 128.046875 C 106.1875 126.675781 100.152344 127.144531 96.613281 125.308594 Z M 204.449219 116.457031 C 220.542969 111.324219 233.804688 107.765625 252.734375 108.410156 C 267.539062 108.828125 289.089844 111.964844 289.429688 127.257812 C 289.65625 137.105469 285.195312 140.679688 276.699219 142.433594 C 268.796875 144.042969 259.074219 143.65625 250.753906 143.65625 C 235.460938 143.65625 213.960938 145.71875 203.691406 136.109375 C 203.691406 128.0625 206.703125 135.046875 204.464844 116.539062 Z M 191.570312 87.808594 C 219.175781 82.289062 262.96875 77.910156 278.953125 106.238281 C 260.828125 99.796875 238.246094 101.410156 219.09375 105.398438 C 214.492188 106.367188 205.1875 110.019531 202.097656 110.097656 C 200.988281 94.101562 195.191406 97.09375 186.003906 89.867188 Z M 194.695312 104.707031 C 173.769531 99.878906 157.996094 96.660156 137.058594 104.835938 C 127.996094 108.34375 124.890625 112.113281 114.140625 115.3125 C 104.371094 118.210938 92.71875 116.699219 88.597656 124.246094 C 89.464844 134.804688 98.847656 130.765625 105.398438 134.082031 C 108.121094 138.121094 107.539062 139.8125 107.878906 144.914062 C 108.296875 151.351562 109.953125 150.09375 114.316406 152.734375 C 114.316406 160.25 103.917969 177.488281 116.199219 184.394531 C 128.207031 188.046875 122.636719 167.300781 130.539062 157.226562 C 134.433594 152.269531 132.292969 153.347656 134.160156 149.179688 C 137.058594 142.609375 153.652344 156.003906 186.226562 146.152344 C 190.878906 144.75 197.171875 140.96875 199.105469 140.582031 C 205.542969 160.847656 137.285156 153.714844 136.09375 155.070312 C 129.542969 162.390625 163.339844 162.152344 169.167969 162.601562 C 163.664062 168.332031 145.863281 171.035156 151.382812 176.523438 C 159.332031 180.722656 199.859375 153.152344 206.007812 145.332031 C 215.167969 148.648438 225.644531 145.863281 226.691406 168.167969 C 220.429688 167.914062 211.914062 165.160156 207.378906 166.238281 L 226.996094 174.574219 C 227.398438 181.835938 227.59375 188.882812 235.042969 188.738281 C 242.835938 188.59375 242.867188 180.273438 242.449219 173.03125 L 257.144531 169.214844 C 260.363281 174.960938 273.6875 181.898438 272.996094 203.464844 C 240.53125 228.21875 169.328125 207.425781 128.640625 203.464844 C 114.15625 202.035156 103.5 202.324219 93.925781 209.902344 C 86.457031 215.875 79.777344 232.355469 92.554688 237.265625 C 108.394531 243.460938 147.988281 238.683594 166.851562 247.371094 L 161.859375 260.425781 C 159.382812 256.996094 155.535156 249.335938 148.808594 252.910156 C 142.5625 256.128906 145.832031 267.058594 146.296875 273.042969 C 103.96875 272.289062 28.804688 266.878906 14.59375 235.640625 C 0.460938 204.785156 20.546875 127.804688 49.277344 113.703125 C 49.164062 119.804688 46.878906 126.015625 49.46875 130.863281 L 53.316406 131.007812 C 55.085938 127.707031 56.519531 75.269531 95.324219 55.28125 C 127.03125 38.847656 165.273438 47.507812 173.0625 78.972656 C 156.019531 70.925781 145.378906 64.359375 121.914062 71.039062 C 114.023438 73.316406 106.710938 76.808594 99.976562 81.515625 C 98.125 82.785156 91.445312 86.519531 94.617188 89.867188 C 97.785156 93.214844 99.445312 89.386719 105.175781 85.730469 C 119.484375 76.6875 137.621094 71.34375 156.679688 77.910156 C 166.0625 81.128906 170.601562 85.328125 176.84375 90.191406 C 179.453125 92.234375 182.65625 95.824219 185.421875 97.289062 C 190.703125 100.105469 192.988281 99.605469 194.773438 104.707031 Z M 172.402344 62.378906 C 177.007812 57.371094 234.382812 31.445312 247.679688 79.117188 C 219.851562 75.898438 206.910156 78.921875 180.933594 83.542969 C 179.726562 74.464844 175.574219 68.863281 172.402344 62.378906 Z M 107.574219 292.710938 C 117.035156 293.132812 126.371094 293.113281 135.867188 292.710938 C 171.886719 293.019531 174.816406 309 174.496094 341.109375 C 174.800781 346.355469 179.324219 348.109375 181.464844 338.261719 C 180.320312 323.355469 181.464844 304.589844 167.347656 296.945312 C 172.433594 298.363281 175.398438 300.613281 179.679688 297.910156 C 180.015625 291.683594 175.945312 293.210938 170.40625 291.007812 C 155.34375 285.050781 150.644531 275.183594 151.382812 258.65625 C 160.074219 263.273438 157.128906 276.828125 166.367188 276.472656 C 168.152344 273.078125 167.785156 262.324219 170.132812 255.839844 C 172 250.6875 175.558594 243.1875 180.464844 242.527344 C 178.855469 247.355469 172.578125 270.824219 183.1875 266.027344 C 185.472656 263.855469 180.660156 244.621094 195.386719 237.492188 C 197.140625 250.914062 185.199219 258.414062 197.445312 271.546875 C 213.542969 271.210938 201.40625 242.109375 215.039062 236.734375 C 218.355469 244.507812 213.269531 269.34375 213.203125 273.753906 C 213.125 278.742188 212.125 276.117188 214.941406 278.292969 C 218.160156 280.882812 218.464844 277.519531 219.527344 274.832031 C 221.621094 269.519531 220.367188 272.949219 225.128906 269.664062 C 230.394531 266.042969 230.199219 260.796875 232.984375 255.839844 C 239.085938 275.78125 238.246094 278.371094 222.457031 287.625 C 204.496094 298.039062 195.964844 294.066406 195.691406 299.3125 C 195.417969 304.558594 201.871094 302.128906 205.800781 301.566406 C 197.589844 313.074219 198.558594 341.0625 202.015625 342.75 C 203.238281 343.214844 204.496094 343.410156 205.800781 343.332031 C 208.117188 339.242188 197.332031 315.375 212.785156 299.570312 L 224.292969 294.160156 C 237.074219 306.585938 249.707031 319.300781 262.390625 332.597656 C 261.183594 336.910156 258.734375 339.035156 260.875 343.023438 C 267.316406 344.054688 269.730469 334.589844 269.488281 329.328125 C 263.855469 325.625 233.339844 295.382812 229.828125 290.1875 C 235.171875 288.207031 241.722656 281.800781 242.867188 274.558594 C 244.007812 267.316406 240.308594 257.707031 238.328125 251.476562 C 246.953125 250.640625 256.257812 250.269531 263.582031 247.246094 C 272.128906 243.65625 273.609375 238.410156 274.445312 227.753906 C 297.910156 212.816406 279.707031 203.609375 279.417969 202.917969 C 279.097656 193.261719 277.953125 188.964844 274.1875 181.417969 C 270.421875 173.867188 267.28125 171.921875 262.710938 166.609375 C 264.113281 165.160156 272.769531 159.992188 282.652344 150.402344 L 292.003906 141.097656 C 296.832031 135.160156 297.976562 122.265625 290.539062 113.976562 C 287.144531 110.164062 286.691406 106.65625 284.019531 101.828125 C 273.414062 82.511719 256.902344 86.296875 253.730469 77.136719 C 241.609375 41.777344 212.640625 38.203125 180.546875 51.046875 C 175.992188 52.882812 171.355469 55.585938 166.960938 56.664062 C 150.402344 34.421875 83.269531 27.015625 56.050781 92.621094 C 48.503906 110.710938 54.78125 103.886719 45.414062 108.457031 C 16.878906 122.300781 0.0898438 187.984375 3.808594 218.789062 C 4.742188 226.386719 6.09375 232.984375 9.214844 239.035156 C 31.910156 282.832031 50.210938 290.21875 107.574219 292.710938 Z M 107.574219 292.710938 " fill-opacity="1" fill-rule="evenodd"/><path fill="#ffffff" d="M 322.3125 226.804688 C 309.03125 223.183594 311.671875 200.214844 299.117188 201.90625 C 291.328125 202.96875 291.070312 209.742188 293.773438 216.777344 C 301.324219 236.332031 303.433594 234.304688 287.933594 240.917969 C 258.222656 253.617188 270.824219 269.890625 278.355469 304.269531 C 279.496094 309.34375 280.1875 314.476562 280.433594 319.671875 C 281.027344 333.402344 276.8125 334.253906 284.972656 334.480469 C 294.628906 319.527344 267.796875 275.554688 275.3125 257.769531 C 279.417969 248.113281 295.253906 246.875 302.433594 240.695312 C 313.972656 230.777344 294.484375 214.667969 299.488281 208.34375 C 303.914062 208.730469 306.121094 219.367188 308.757812 223.441406 C 316.5 235.382812 334.15625 242.09375 326.464844 212.542969 C 324.855469 207.136719 321.089844 197.898438 322.199219 192.667969 C 325.496094 180.210938 336.683594 214.074219 336.910156 214.878906 C 338.359375 219.5625 338.292969 222.683594 343.507812 220.960938 C 345.953125 216.9375 341.367188 208.34375 339.726562 203.257812 C 338.921875 200.746094 332.449219 187.160156 333.511719 186.101562 C 342.898438 176.441406 349.609375 204.433594 351.105469 210.53125 C 352.601562 216.632812 351.410156 219.929688 357.6875 219.269531 C 362 211.144531 350.269531 198.347656 354.644531 189.785156 C 360.246094 184.121094 368.261719 206.425781 367.183594 214.234375 C 365.574219 225.308594 357.527344 235.914062 347.773438 245.699219 C 337.183594 256.160156 322.503906 261.003906 315.582031 273.671875 C 315.101562 280.785156 306.359375 337.699219 318.671875 333.851562 C 321.039062 331.953125 318.269531 323.550781 317.757812 321.265625 C 314.152344 297.960938 318.867188 286.46875 318.867188 274.703125 C 329.632812 262.261719 345.921875 255.210938 357.496094 244.636719 C 364.398438 236.285156 372.222656 225.917969 373.589844 214.539062 C 374.957031 203.160156 370.195312 198.75 366.910156 190.816406 C 365.300781 187.015625 365.15625 183.347656 360.472656 182.398438 C 355.789062 181.449219 351.058594 183.539062 349.414062 185.617188 C 337.972656 170.664062 327.75 182.6875 325.867188 183.558594 C 321.730469 185.375 319.734375 184.78125 317.175781 187.757812 C 311.464844 194.453125 322.101562 214.75 322.261719 226.773438 Z M 322.3125 226.804688 " fill-opacity="1" fill-rule="evenodd"/></svg>