<svg xmlns="http://www.w3.org/2000/svg" xmlns:xlink="http://www.w3.org/1999/xlink" width="500" zoomAndPan="magnify" viewBox="0 0 375 374.999991" height="500" preserveAspectRatio="xMidYMid meet" version="1.0"><defs><clipPath id="0b34c99f60"><path d="M 0 0 L 374 0 L 374 374.25 L 0 374.25 Z M 0 0 " clip-rule="nonzero"/></clipPath></defs><g clip-path="url(#0b34c99f60)"><path fill="#ffffff" d="M 373.652344 5.050781 C 373.648438 4.957031 373.644531 4.890625 373.640625 4.851562 C 373.640625 4.789062 373.621094 4.730469 373.613281 4.667969 C 373.601562 4.542969 373.582031 4.421875 373.558594 4.300781 C 373.542969 4.214844 373.535156 4.128906 373.511719 4.046875 C 373.496094 3.984375 373.46875 3.929688 373.453125 3.867188 C 373.417969 3.757812 373.378906 3.652344 373.335938 3.546875 C 373.304688 3.46875 373.277344 3.386719 373.238281 3.304688 C 373.207031 3.242188 373.171875 3.179688 373.136719 3.117188 C 373.085938 3.03125 373.039062 2.945312 372.984375 2.863281 C 372.9375 2.785156 372.890625 2.710938 372.835938 2.640625 C 372.789062 2.574219 372.738281 2.515625 372.6875 2.453125 C 372.632812 2.386719 372.574219 2.316406 372.515625 2.253906 C 372.453125 2.1875 372.390625 2.125 372.324219 2.0625 C 372.257812 2 372.191406 1.945312 372.125 1.890625 C 372.0625 1.839844 372 1.785156 371.9375 1.738281 C 371.863281 1.6875 371.789062 1.640625 371.714844 1.589844 C 371.628906 1.535156 371.542969 1.488281 371.457031 1.441406 C 371.394531 1.40625 371.332031 1.367188 371.269531 1.335938 C 371.191406 1.300781 371.109375 1.273438 371.03125 1.238281 C 370.921875 1.195312 370.8125 1.160156 370.703125 1.125 C 370.644531 1.105469 370.589844 1.082031 370.53125 1.066406 C 370.445312 1.042969 370.359375 1.035156 370.277344 1.019531 C 370.152344 0.996094 370.03125 0.976562 369.90625 0.964844 C 369.84375 0.957031 369.785156 0.9375 369.722656 0.933594 C 369.703125 0.933594 369.539062 0.925781 369.261719 0.914062 C 365.5625 0.742188 341 0.0273438 306.980469 8.578125 C 306.519531 8.695312 306.0625 8.808594 305.601562 8.925781 C 305.078125 9.0625 304.550781 9.199219 304.023438 9.339844 C 303.285156 9.53125 302.546875 9.730469 301.800781 9.933594 C 301.441406 10.03125 301.085938 10.125 300.726562 10.222656 C 299.5625 10.546875 298.394531 10.875 297.214844 11.21875 C 297.210938 11.21875 297.207031 11.21875 297.207031 11.21875 C 257.554688 22.746094 200.773438 49.3125 154.320312 110.445312 C 139.820312 108.476562 113.589844 107.851562 85.308594 121.335938 C 48.492188 138.894531 20.042969 174.332031 0.761719 226.671875 C 0.109375 228.4375 0.722656 230.417969 2.253906 231.511719 C 2.984375 232.027344 3.832031 232.285156 4.675781 232.285156 C 5.617188 232.285156 6.554688 231.96875 7.320312 231.34375 C 7.90625 230.863281 64.609375 185.050781 106.402344 197.683594 C 104.554688 202.445312 102.753906 207.316406 101.027344 212.277344 L 98.6875 209.9375 C 97.058594 208.308594 94.417969 208.308594 92.789062 209.9375 L 80.5625 222.160156 C 78.933594 223.789062 78.933594 226.433594 80.5625 228.0625 L 90.503906 238.003906 L 74.511719 253.996094 C 72.882812 255.625 72.882812 258.269531 74.511719 259.898438 L 114.675781 300.058594 C 115.492188 300.875 116.558594 301.28125 117.625 301.28125 C 118.695312 301.28125 119.761719 300.875 120.578125 300.058594 L 136.570312 284.066406 L 146.507812 294.003906 C 147.320312 294.816406 148.390625 295.226562 149.457031 295.226562 C 150.527344 295.226562 151.59375 294.816406 152.410156 294.003906 L 164.632812 281.78125 C 166.261719 280.152344 166.261719 277.507812 164.632812 275.878906 L 162.296875 273.546875 C 167.265625 271.816406 172.136719 270.015625 176.890625 268.171875 C 189.523438 309.960938 143.710938 366.667969 143.230469 367.253906 C 142.039062 368.707031 141.972656 370.78125 143.0625 372.316406 C 143.863281 373.4375 145.140625 374.066406 146.460938 374.066406 C 146.945312 374.066406 147.429688 373.984375 147.902344 373.808594 C 200.242188 354.527344 235.679688 326.082031 253.238281 289.261719 C 266.726562 260.980469 266.097656 234.746094 264.132812 220.25 C 325.269531 173.792969 351.835938 117.007812 363.359375 77.355469 C 374.960938 37.429688 373.804688 7.996094 373.652344 5.050781 Z M 13.898438 216.152344 C 32.117188 173.265625 57.308594 143.933594 88.902344 128.871094 C 112.519531 117.605469 134.585938 116.902344 148.628906 118.195312 C 133.480469 139.472656 120.347656 163.546875 109.503906 189.910156 C 75.183594 179.03125 33.859375 202.539062 13.898438 216.152344 Z M 117.625 291.207031 L 83.363281 256.945312 L 96.40625 243.902344 L 130.667969 278.164062 Z M 149.457031 285.152344 L 139.523438 275.21875 C 139.519531 275.214844 139.519531 275.214844 139.519531 275.214844 L 99.359375 235.054688 C 99.359375 235.054688 99.359375 235.050781 99.359375 235.050781 C 99.355469 235.050781 99.355469 235.050781 99.351562 235.046875 L 89.414062 225.109375 L 95.738281 218.789062 L 155.777344 278.828125 Z M 245.703125 285.671875 C 230.636719 317.265625 201.304688 342.453125 158.421875 360.675781 C 172.035156 340.710938 195.539062 299.386719 184.660156 265.070312 C 211.027344 254.226562 235.101562 241.089844 256.378906 225.945312 C 257.671875 239.988281 256.96875 262.054688 245.703125 285.671875 Z M 257.144531 215.070312 C 234.097656 232.289062 207.417969 247.015625 177.84375 258.839844 C 170.75 261.671875 163.3125 264.398438 155.71875 266.96875 L 107.605469 218.855469 C 110.167969 211.277344 112.894531 203.839844 115.734375 196.730469 C 127.558594 167.15625 142.285156 140.476562 159.5 117.429688 C 203.148438 59.003906 256.503906 32.542969 295.09375 20.570312 C 298.089844 35.082031 305.164062 48.226562 315.753906 58.820312 C 326.34375 69.410156 339.492188 76.484375 354.003906 79.480469 C 342.03125 118.070312 315.570312 171.425781 257.144531 215.070312 Z M 365.390625 9.804688 C 365.386719 10.007812 365.386719 10.222656 365.386719 10.4375 C 365.386719 10.59375 365.382812 10.746094 365.382812 10.90625 C 365.378906 11.277344 365.375 11.660156 365.367188 12.066406 C 365.363281 12.179688 365.363281 12.308594 365.359375 12.425781 C 365.351562 12.746094 365.347656 13.074219 365.335938 13.414062 C 365.332031 13.585938 365.328125 13.765625 365.324219 13.941406 C 365.3125 14.261719 365.304688 14.585938 365.292969 14.921875 C 365.285156 15.097656 365.28125 15.273438 365.273438 15.457031 C 365.257812 15.941406 365.238281 16.441406 365.214844 16.957031 C 365.210938 17.019531 365.207031 17.082031 365.203125 17.144531 C 365.179688 17.664062 365.152344 18.199219 365.125 18.746094 C 365.113281 18.925781 365.105469 19.113281 365.09375 19.296875 C 365.070312 19.726562 365.042969 20.167969 365.015625 20.613281 C 365.003906 20.8125 364.992188 21.007812 364.976562 21.207031 C 364.941406 21.757812 364.902344 22.320312 364.859375 22.894531 C 364.855469 22.988281 364.847656 23.074219 364.839844 23.167969 C 364.792969 23.828125 364.738281 24.511719 364.679688 25.203125 C 364.664062 25.398438 364.644531 25.601562 364.628906 25.796875 C 364.582031 26.320312 364.535156 26.855469 364.484375 27.394531 C 364.460938 27.625 364.441406 27.855469 364.417969 28.085938 C 364.359375 28.691406 364.300781 29.308594 364.234375 29.9375 C 364.21875 30.082031 364.203125 30.21875 364.1875 30.363281 C 364.105469 31.132812 364.019531 31.921875 363.925781 32.722656 C 363.90625 32.917969 363.878906 33.117188 363.855469 33.3125 C 363.78125 33.933594 363.707031 34.5625 363.625 35.199219 C 363.59375 35.453125 363.558594 35.710938 363.527344 35.972656 C 363.441406 36.625 363.351562 37.289062 363.257812 37.960938 C 363.230469 38.160156 363.207031 38.355469 363.175781 38.554688 C 363.054688 39.421875 362.925781 40.304688 362.792969 41.199219 C 362.765625 41.371094 362.738281 41.546875 362.710938 41.71875 C 362.601562 42.449219 362.484375 43.1875 362.363281 43.9375 C 362.316406 44.210938 362.273438 44.484375 362.226562 44.761719 C 362.109375 45.472656 361.984375 46.191406 361.859375 46.917969 C 361.820312 47.152344 361.777344 47.390625 361.734375 47.625 C 361.566406 48.589844 361.386719 49.5625 361.203125 50.546875 C 361.183594 50.644531 361.164062 50.738281 361.148438 50.835938 C 360.980469 51.71875 360.804688 52.613281 360.621094 53.515625 C 360.566406 53.792969 360.507812 54.070312 360.453125 54.347656 C 360.292969 55.125 360.128906 55.90625 359.960938 56.695312 C 359.90625 56.957031 359.851562 57.21875 359.792969 57.480469 C 359.34375 59.554688 358.855469 61.667969 358.332031 63.820312 C 358.265625 64.097656 358.195312 64.375 358.128906 64.652344 C 357.921875 65.484375 357.710938 66.328125 357.492188 67.175781 C 357.417969 67.457031 357.34375 67.742188 357.269531 68.027344 C 356.988281 69.113281 356.699219 70.207031 356.394531 71.308594 C 356.390625 71.316406 356.390625 71.328125 356.386719 71.335938 C 356.375 71.375 356.363281 71.414062 356.355469 71.453125 C 343.175781 68.867188 331.242188 62.503906 321.652344 52.917969 C 312.066406 43.328125 305.703125 31.394531 303.117188 18.21875 C 304.300781 17.890625 305.476562 17.578125 306.640625 17.273438 C 306.832031 17.226562 307.019531 17.175781 307.210938 17.128906 C 308.230469 16.863281 309.246094 16.609375 310.25 16.363281 C 310.34375 16.339844 310.441406 16.3125 310.539062 16.289062 C 336.792969 9.878906 357.246094 9.164062 365.386719 9.183594 C 365.386719 9.230469 365.386719 9.273438 365.390625 9.324219 C 365.390625 9.480469 365.390625 9.640625 365.390625 9.804688 Z M 365.390625 9.804688 " fill-opacity="1" fill-rule="nonzero"/></g><path fill="#ffffff" d="M 249.09375 88.085938 C 228.476562 88.085938 211.699219 104.859375 211.699219 125.480469 C 211.699219 146.097656 228.476562 162.875 249.09375 162.875 C 269.714844 162.875 286.488281 146.097656 286.488281 125.480469 C 286.488281 104.859375 269.714844 88.085938 249.09375 88.085938 Z M 249.09375 154.527344 C 233.078125 154.527344 220.046875 141.496094 220.046875 125.480469 C 220.046875 109.460938 233.078125 96.429688 249.09375 96.429688 C 265.113281 96.429688 278.144531 109.460938 278.144531 125.480469 C 278.144531 141.496094 265.113281 154.527344 249.09375 154.527344 Z M 249.09375 154.527344 " fill-opacity="1" fill-rule="nonzero"/><path fill="#ffffff" d="M 84.585938 289.988281 C 82.957031 288.355469 80.316406 288.355469 78.683594 289.988281 L 26.300781 342.371094 C 24.667969 344 24.667969 346.640625 26.300781 348.269531 C 27.113281 349.085938 28.183594 349.492188 29.25 349.492188 C 30.316406 349.492188 31.386719 349.085938 32.203125 348.269531 L 84.585938 295.886719 C 86.214844 294.257812 86.214844 291.617188 84.585938 289.988281 Z M 84.585938 289.988281 " fill-opacity="1" fill-rule="nonzero"/><path fill="#ffffff" d="M 104.683594 310.085938 C 103.054688 308.457031 100.414062 308.457031 98.785156 310.085938 L 64.578125 344.292969 C 62.949219 345.921875 62.949219 348.566406 64.578125 350.195312 C 65.394531 351.007812 66.460938 351.417969 67.527344 351.417969 C 68.597656 351.417969 69.664062 351.007812 70.480469 350.195312 L 104.6875 315.988281 C 106.316406 314.359375 106.316406 311.714844 104.683594 310.085938 Z M 104.683594 310.085938 " fill-opacity="1" fill-rule="nonzero"/><path fill="#ffffff" d="M 141.574219 313.402344 C 139.945312 311.769531 137.304688 311.769531 135.671875 313.402344 L 99.824219 349.25 C 98.191406 350.878906 98.191406 353.523438 99.824219 355.152344 C 100.636719 355.964844 101.707031 356.375 102.773438 356.375 C 103.84375 356.375 104.910156 355.964844 105.726562 355.152344 L 141.574219 319.300781 C 143.203125 317.671875 143.203125 315.03125 141.574219 313.402344 Z M 141.574219 313.402344 " fill-opacity="1" fill-rule="nonzero"/><path fill="#ffffff" d="M 61.171875 238.898438 C 62.800781 237.269531 62.800781 234.628906 61.171875 233 C 59.542969 231.367188 56.902344 231.367188 55.269531 233 L 19.421875 268.847656 C 17.792969 270.476562 17.792969 273.121094 19.421875 274.75 C 20.238281 275.5625 21.304688 275.972656 22.371094 275.972656 C 23.441406 275.972656 24.507812 275.5625 25.324219 274.75 Z M 61.171875 238.898438 " fill-opacity="1" fill-rule="nonzero"/><path fill="#ffffff" d="M 30.277344 309.992188 L 64.484375 275.789062 C 66.113281 274.15625 66.113281 271.515625 64.484375 269.886719 C 62.855469 268.257812 60.210938 268.257812 58.582031 269.886719 L 24.378906 304.09375 C 22.746094 305.722656 22.746094 308.363281 24.378906 309.992188 C 25.191406 310.808594 26.261719 311.214844 27.328125 311.214844 C 28.398438 311.214844 29.464844 310.808594 30.277344 309.992188 Z M 30.277344 309.992188 " fill-opacity="1" fill-rule="nonzero"/></svg>