<svg xmlns="http://www.w3.org/2000/svg" xmlns:xlink="http://www.w3.org/1999/xlink" width="500" zoomAndPan="magnify" viewBox="0 0 375 374.999991" height="500" preserveAspectRatio="xMidYMid meet" version="1.0"><path fill="#ffffff" d="M 342.339844 312.179688 C 342.300781 312.472656 342.375 312.777344 342.578125 313.023438 C 345.925781 317.050781 350.277344 321.195312 355.449219 322.582031 C 360.328125 323.886719 364.570312 321.921875 367.78125 318.574219 C 370.859375 315.363281 372.964844 310.867188 373.734375 306.988281 C 374.882812 301.199219 373.789062 294.777344 371.4375 288.507812 C 367.972656 279.265625 361.789062 270.347656 356.332031 264.320312 C 350.609375 257.996094 344.15625 252.46875 334.898438 255.566406 C 334.335938 255.757812 334.03125 256.367188 334.21875 256.933594 C 334.28125 257.121094 334.394531 257.285156 334.535156 257.40625 C 334.019531 257.710938 333.503906 258.0625 332.980469 258.472656 C 332.71875 258.675781 332.574219 258.980469 332.566406 259.285156 C 326.390625 258.96875 319.917969 258.242188 314.210938 259.003906 C 310.296875 253.050781 304.929688 248.34375 300.164062 242.605469 C 296.433594 238.117188 292.929688 233.453125 289.710938 228.589844 C 289.496094 228.265625 289.136719 228.097656 288.777344 228.105469 C 287.664062 226.101562 286.207031 224.28125 284.566406 222.5625 C 280.933594 218.75 276.382812 215.433594 272.960938 211.507812 C 269.46875 207.5 265.980469 202.789062 263.183594 198.242188 C 261.4375 195.402344 259.988281 192.390625 258.347656 189.523438 C 258.347656 189.523438 267.988281 186.480469 267.992188 186.480469 C 268.066406 186.453125 268.144531 186.417969 268.21875 186.378906 C 268.339844 186.304688 268.445312 186.207031 268.53125 186.09375 L 283.671875 165.78125 C 283.917969 165.449219 283.953125 165.007812 283.765625 164.640625 L 268.410156 135.054688 C 268.230469 134.707031 267.878906 134.484375 267.488281 134.472656 C 264.640625 134.382812 262.9375 133.542969 261.988281 132.308594 C 261.121094 131.179688 260.898438 129.761719 260.914062 128.484375 C 260.9375 126.421875 261.59375 124.660156 261.59375 124.660156 C 261.691406 124.402344 261.6875 124.121094 261.578125 123.867188 C 253.398438 104.265625 243 85.761719 229.746094 68.652344 C 229.574219 68.433594 229.328125 68.289062 229.054688 68.246094 C 224.78125 67.589844 223.394531 64.605469 223.058594 61.796875 C 222.699219 58.789062 223.488281 55.957031 223.488281 55.957031 C 223.554688 55.710938 223.535156 55.449219 223.429688 55.21875 C 216.425781 39.878906 206.40625 26.597656 193.980469 14.957031 C 193.839844 14.828125 193.675781 14.742188 193.503906 14.699219 C 193.417969 14.679688 193.328125 14.667969 193.238281 14.667969 L 169.207031 14.734375 C 168.96875 14.734375 168.75 14.8125 168.574219 14.941406 L 159.601562 0.546875 C 159.390625 0.203125 159.003906 0.0078125 158.605469 0.0390625 L 149.574219 0.722656 C 149.570312 0.722656 149.566406 0.722656 149.566406 0.722656 L 140.964844 1.429688 C 140.75 1.449219 140.542969 1.53125 140.371094 1.667969 L 137.6875 3.851562 C 137.539062 3.785156 137.375 3.75 137.203125 3.757812 L 112.726562 4.605469 C 112.507812 4.613281 112.296875 4.6875 112.121094 4.820312 L 70.800781 35.523438 C 67.996094 37.609375 67.398438 41.570312 69.464844 44.390625 L 69.964844 45.074219 C 69.964844 45.074219 69.964844 45.078125 69.964844 45.078125 L 67.074219 53.261719 C 66.328125 53.875 65.828125 54.742188 65.679688 55.707031 C 65.511719 56.78125 65.796875 57.882812 66.46875 58.742188 L 74.25 68.71875 C 75.644531 70.511719 78.1875 70.925781 80.082031 69.671875 L 81.425781 68.78125 C 82.320312 77.484375 86.402344 84.0625 86.667969 84.480469 C 91.066406 91.992188 96.234375 96.492188 101.382812 99.085938 C 102.898438 100.558594 104.800781 102.933594 106.796875 104.890625 C 107.804688 105.878906 108.84375 106.761719 109.867188 107.402344 C 106.011719 111.421875 102.335938 117.007812 99.511719 121.582031 C 97.464844 124.898438 95.128906 128.019531 93.085938 131.332031 C 92.015625 133.066406 89.769531 136.421875 88.222656 139.648438 C 87.101562 141.980469 86.371094 144.265625 86.53125 145.914062 C 86.554688 146.125 86.585938 146.332031 86.621094 146.539062 C 84.902344 153.5 83.507812 160.339844 80.988281 167.042969 C 80.503906 166.824219 80.003906 166.683594 79.492188 166.632812 C 78.164062 166.5 76.703125 166.839844 75.265625 167.425781 C 73.316406 168.21875 71.394531 169.460938 69.953125 170.320312 C 63.820312 173.96875 57.371094 177.167969 51.90625 181.855469 C 51.742188 181.992188 51.636719 182.167969 51.574219 182.355469 C 51.121094 182.558594 50.851562 183.058594 50.957031 183.5625 C 51.285156 185.117188 51.726562 186.582031 52.25 187.992188 C 49.578125 189.085938 46.921875 190.359375 44.105469 190.988281 C 44.023438 191.003906 43.949219 191.03125 43.878906 191.0625 C 42.789062 190.039062 41.644531 189.054688 40.667969 187.996094 C 39.308594 186.53125 38.1875 184.925781 36.769531 183.503906 C 35.445312 182.179688 33.351562 180.792969 31.34375 181.285156 C 30.15625 181.574219 29.421875 182.136719 28.992188 182.820312 C 28.375 183.785156 28.363281 185.085938 28.8125 186.507812 C 29.089844 187.378906 29.542969 188.304688 30.050781 189.199219 C 25.269531 187.726562 20.046875 187.378906 15.117188 186.824219 C 12.605469 186.542969 9.910156 185.859375 7.363281 186.226562 C 5.449219 186.503906 4.1875 187.574219 3.78125 188.765625 C 3.40625 189.882812 3.667969 191.242188 5.050781 192.375 C 3.886719 192.671875 2.722656 193.121094 1.871094 193.6875 C 0.925781 194.316406 0.351562 195.117188 0.25 195.941406 C 0.121094 197.003906 0.761719 198.421875 3.304688 199.71875 C 3.539062 199.835938 3.796875 199.953125 4.078125 200.0625 C 3.191406 200.785156 2.824219 201.753906 2.867188 202.691406 C 2.941406 204.210938 4.210938 205.945312 6.6875 206.710938 C 7.148438 206.855469 7.617188 206.976562 8.085938 207.074219 C 7.671875 207.550781 7.492188 208.042969 7.457031 208.511719 C 7.40625 209.148438 7.621094 209.789062 8.058594 210.375 C 8.691406 211.21875 9.828125 211.96875 10.757812 212.40625 C 14.296875 214.082031 18.199219 213.976562 22.007812 214.375 C 27.015625 214.902344 32.070312 215.199219 37.0625 215.957031 C 39.882812 216.386719 44.101562 216.734375 46.632812 215.113281 C 47.03125 214.855469 47.398438 214.582031 47.730469 214.292969 C 50.066406 214.816406 52.574219 215.554688 55.089844 216.003906 C 58.253906 216.570312 61.425781 216.667969 64.324219 215.472656 C 64.386719 215.449219 64.449219 215.414062 64.503906 215.378906 C 64.621094 215.347656 64.726562 215.292969 64.824219 215.226562 C 65.03125 215.335938 65.28125 215.375 65.53125 215.328125 C 72.621094 213.933594 79.46875 211.996094 86.113281 209.089844 C 87.539062 208.464844 89.136719 207.898438 90.589844 207.128906 C 92.015625 206.378906 93.300781 205.433594 94.234375 204.113281 C 102.726562 199.914062 109.320312 193.742188 115.019531 186.09375 C 115.035156 186.070312 115.050781 186.046875 115.066406 186.023438 L 118.6875 192.082031 C 118.691406 192.09375 118.691406 192.097656 118.695312 192.105469 L 123.777344 200.613281 C 124.046875 201.058594 124.589844 201.25 125.078125 201.074219 L 131.835938 198.582031 C 131.683594 209.054688 136.011719 218.699219 143.363281 223.640625 C 148.59375 227.152344 155.355469 228.335938 163.179688 225.75 C 163.632812 226.589844 164.09375 227.421875 164.574219 228.246094 C 166.957031 232.34375 169.753906 236.128906 173.683594 238.746094 C 173.699219 238.890625 173.742188 239.035156 173.816406 239.167969 C 176.503906 243.988281 180.277344 248.21875 183.472656 252.71875 C 189.476562 261.160156 195.609375 269.867188 200.746094 278.84375 C 203.082031 282.925781 205.480469 289.105469 208.59375 294.257812 C 210.769531 297.863281 213.308594 300.964844 216.355469 302.640625 C 216.894531 302.9375 217.4375 303.199219 217.988281 303.425781 C 218.671875 306.136719 219.414062 309.308594 220.847656 311.652344 C 224.496094 317.636719 238.574219 327.667969 244.933594 330.976562 C 250.195312 333.714844 257.429688 336.339844 263.632812 334.992188 C 269.828125 337.890625 275.816406 341.160156 282.351562 343.222656 C 282.742188 343.34375 283.136719 343.46875 283.53125 343.59375 C 282.078125 352.875 286.742188 362.582031 293.554688 368.734375 C 296.8125 371.679688 301.460938 373.601562 305.679688 372.707031 C 305.710938 372.714844 305.746094 372.71875 305.773438 372.726562 C 307.628906 372.976562 309.375 372.457031 311.105469 371.863281 C 318.800781 369.222656 318.863281 364.078125 319.324219 356.859375 C 319.898438 347.804688 317.632812 339.203125 316.484375 330.277344 C 315.832031 325.234375 315.5625 317.191406 312.984375 312.785156 C 312.226562 311.496094 310.832031 310.578125 309.792969 309.539062 C 309.4375 309.179688 308.894531 309.125 308.480469 309.371094 C 307.691406 308.808594 306.59375 308.425781 305.382812 308.195312 C 303.476562 307.832031 301.285156 307.796875 300 307.636719 C 299.507812 307.574219 299.054688 307.851562 298.871094 308.289062 C 298.445312 308.066406 297.984375 307.890625 297.511719 307.742188 C 296.640625 307.46875 295.714844 307.296875 294.957031 306.953125 C 292.855469 305.992188 290.402344 305.339844 288.402344 304.238281 C 285.9375 302.882812 284.105469 301.71875 281.453125 300.773438 C 281.039062 299.960938 280.269531 299.121094 279.238281 298.328125 C 276.441406 296.179688 271.6875 294.125 269.996094 292.835938 C 263.566406 287.945312 258.726562 280.878906 254.625 273.914062 C 255.65625 274.246094 256.707031 274.511719 257.777344 274.707031 C 258.621094 274.863281 259.460938 274.945312 260.296875 274.964844 C 266.070312 279.292969 272.023438 283.34375 277.847656 287.632812 C 283.277344 291.632812 288.648438 297.792969 295.328125 299.71875 C 298.027344 300.496094 300.765625 300.105469 303.375 299.300781 C 303.46875 299.714844 303.808594 300.054688 304.253906 300.125 C 313.523438 301.632812 322.210938 301.738281 331.542969 300.929688 C 332.554688 300.839844 334.445312 300.972656 336.265625 301.011719 C 338.042969 304.863281 339.902344 308.695312 342.339844 312.179688 Z M 347.8125 259.402344 C 350.316406 261.074219 352.570312 263.382812 354.726562 265.769531 C 360.03125 271.628906 366.046875 280.289062 369.414062 289.265625 C 371.613281 295.140625 372.691406 301.144531 371.613281 306.566406 C 370.917969 310.085938 369.011719 314.167969 366.21875 317.082031 C 363.554688 319.863281 360.058594 321.578125 356.007812 320.496094 C 355.679688 320.40625 355.355469 320.304688 355.035156 320.195312 C 356.097656 320.246094 357.148438 320.164062 358.167969 319.949219 C 363.25 318.890625 367.652344 314.585938 368.992188 307.257812 C 369.933594 302.117188 368.816406 295.816406 366.597656 289.488281 C 363.328125 280.164062 357.707031 270.769531 353.117188 265.039062 C 351.550781 263.082031 349.769531 261.042969 347.8125 259.402344 Z M 335.425781 259.398438 C 339.042969 257.1875 342.359375 258.082031 345.269531 260.160156 C 347.578125 261.804688 349.644531 264.160156 351.429688 266.390625 C 355.898438 271.96875 361.375 281.121094 364.558594 290.203125 C 366.640625 296.144531 367.75 302.046875 366.871094 306.867188 C 365.722656 313.140625 362.078125 316.925781 357.726562 317.832031 C 353.363281 318.746094 348.390625 316.753906 344.675781 311.730469 C 342.21875 308.402344 340.367188 304.703125 338.628906 300.972656 C 339.582031 300.894531 340.378906 300.726562 340.875 300.464844 C 345.1875 298.195312 346.796875 292.765625 347.527344 288.335938 C 348.4375 282.789062 348.378906 275.601562 346.304688 269.488281 C 344.882812 265.296875 342.515625 261.613281 338.917969 259.238281 C 338.46875 258.941406 337.871094 259.027344 337.523438 259.417969 C 336.832031 259.421875 336.132812 259.414062 335.425781 259.398438 Z M 315.453125 261.03125 C 322.675781 260.28125 331.019531 261.726562 338.355469 261.566406 C 338.390625 261.5625 338.425781 261.5625 338.457031 261.558594 C 341.242188 263.671875 343.09375 266.75 344.257812 270.183594 C 346.214844 275.957031 346.257812 282.746094 345.394531 287.984375 C 344.765625 291.808594 343.589844 296.597656 339.867188 298.554688 C 339.367188 298.820312 338.410156 298.855469 337.332031 298.859375 C 337.082031 298.757812 336.789062 298.75 336.523438 298.859375 C 334.5625 298.832031 332.449219 298.679688 331.355469 298.773438 C 322.769531 299.523438 314.734375 299.476562 306.265625 298.25 C 306.332031 298.222656 306.398438 298.195312 306.464844 298.167969 C 319.085938 292.996094 322.109375 279.535156 318.164062 267.1875 C 317.453125 264.957031 316.53125 262.925781 315.453125 261.03125 Z M 290.824219 234.027344 C 293.253906 237.441406 295.820312 240.757812 298.5 243.984375 C 305.058594 251.878906 312.867188 257.699219 316.109375 267.84375 C 319.703125 279.101562 317.152344 291.453125 305.644531 296.171875 C 302.597656 297.417969 299.246094 298.597656 295.921875 297.640625 C 292.78125 296.734375 289.957031 294.804688 287.273438 292.644531 C 284.46875 290.382812 281.808594 287.867188 279.128906 285.894531 C 273.972656 282.097656 268.714844 278.488281 263.574219 274.707031 C 268.414062 273.84375 273 270.90625 276.980469 266.847656 C 285.085938 258.59375 290.679688 245.761719 291.007812 237.433594 C 291.054688 236.238281 290.988281 235.105469 290.824219 234.027344 Z M 255.953125 189.621094 C 257.84375 192.785156 259.390625 196.199219 261.34375 199.375 C 264.203125 204.015625 267.765625 208.832031 271.335938 212.925781 C 274.773438 216.878906 279.347656 220.214844 283.003906 224.050781 C 286.449219 227.667969 289.066406 231.738281 288.847656 237.347656 C 288.835938 237.707031 288.808594 238.070312 288.773438 238.445312 C 288.769531 238.449219 288.769531 238.453125 288.765625 238.457031 C 287.328125 240.175781 285.582031 240.320312 283.84375 239.789062 C 281.808594 239.167969 279.785156 237.714844 278.109375 236.457031 C 270.308594 230.601562 263.609375 223.425781 255.578125 217.871094 C 256.050781 213.898438 255.894531 209.035156 255.21875 204.25 C 254.484375 199.097656 253.148438 194.035156 251.367188 190.273438 C 250.964844 189.425781 250.535156 188.636719 250.082031 187.929688 C 250.210938 187.792969 250.304688 187.617188 250.347656 187.421875 C 250.628906 186.113281 250.828125 184.722656 250.960938 183.277344 C 252.898438 185.035156 254.40625 187.082031 255.738281 189.261719 C 255.789062 189.398438 255.863281 189.519531 255.953125 189.621094 Z M 288.289062 241.605469 C 286.6875 249.207031 281.878906 258.777344 275.4375 265.335938 C 271.199219 269.652344 266.25 272.679688 261.019531 272.804688 C 260.953125 272.757812 260.886719 272.703125 260.816406 272.65625 C 260.382812 272.324219 259.777344 272.378906 259.402344 272.753906 C 258.992188 272.714844 258.578125 272.660156 258.167969 272.585938 C 255.625 272.121094 253.210938 271.222656 250.917969 270.007812 C 250.886719 269.921875 250.855469 269.839844 250.820312 269.753906 C 250.601562 269.199219 249.972656 268.925781 249.421875 269.144531 C 249.414062 269.144531 249.410156 269.148438 249.40625 269.148438 C 242.769531 265.136719 237.292969 258.554688 233.15625 252.496094 C 232.820312 252.003906 232.148438 251.875 231.65625 252.214844 C 231.164062 252.550781 231.039062 253.222656 231.375 253.714844 C 235.84375 260.265625 241.863281 267.328125 249.136719 271.472656 C 251.5 278.953125 247.492188 288.105469 241.097656 294.539062 C 234.472656 301.203125 225.1875 305.03125 217.394531 300.746094 C 214.648438 299.234375 212.40625 296.390625 210.441406 293.136719 C 207.339844 288.003906 204.949219 281.839844 202.621094 277.769531 C 197.449219 268.734375 191.277344 259.964844 185.234375 251.46875 C 182.621094 247.789062 179.609375 244.296875 177.144531 240.5 C 183.203125 242.714844 191.019531 241.875 196.761719 240.457031 C 209.878906 237.210938 221.34375 229.101562 230.683594 219.46875 C 230.578125 223.5625 229.726562 227.816406 228.78125 230.964844 C 228.378906 232.296875 226.386719 235.269531 225.835938 237.53125 C 225.492188 238.925781 225.675781 240.113281 226.445312 240.871094 C 227.863281 242.273438 229.585938 242.453125 231.265625 241.925781 C 232.117188 241.660156 232.957031 241.199219 233.722656 240.636719 C 234.277344 241.5625 234.882812 242.445312 235.535156 243.292969 C 235.601562 243.523438 235.742188 243.734375 235.957031 243.878906 C 235.988281 243.902344 236.019531 243.921875 236.046875 243.941406 C 240.269531 249.125 246.164062 252.878906 251.910156 256.238281 C 254.460938 257.726562 256.898438 259.894531 259.808594 260.730469 C 259.859375 260.78125 259.914062 260.828125 259.976562 260.871094 C 263.285156 263.109375 265.835938 263.648438 267.972656 263.121094 C 269.296875 262.800781 270.484375 262.0625 271.605469 260.984375 C 273.117188 259.53125 274.523438 257.425781 276.066406 254.964844 C 276.835938 253.738281 278.238281 251.652344 278.925781 249.648438 C 279.421875 248.210938 279.53125 246.8125 279.046875 245.683594 C 278.527344 243.390625 277.074219 241.640625 275.269531 240.183594 C 273.558594 238.800781 271.53125 237.683594 269.839844 236.542969 C 264.304688 232.800781 258.941406 228.667969 253.710938 224.507812 C 254.351562 223.371094 254.847656 221.921875 255.199219 220.242188 C 262.835938 225.6875 269.308594 232.554688 276.8125 238.183594 C 278.679688 239.582031 280.949219 241.164062 283.210938 241.855469 C 284.953125 242.386719 286.691406 242.429688 288.289062 241.605469 Z M 266.039062 184.828125 L 257.210938 187.617188 C 255.625 185.082031 253.792969 182.722656 251.351562 180.777344 C 251.285156 180.71875 251.210938 180.675781 251.132812 180.640625 C 251.40625 173.714844 250.457031 165.9375 249.597656 159.929688 C 249.421875 158.703125 249.238281 157.46875 249.054688 156.230469 Z M 193.285156 17.273438 C 205.050781 28.453125 214.578125 41.160156 221.304688 55.777344 C 221.085938 56.742188 220.589844 59.335938 220.914062 62.054688 C 221.335938 65.597656 223.089844 69.328125 228.292969 70.308594 C 241.222656 87.0625 251.402344 105.167969 259.429688 124.324219 C 259.199219 125.058594 258.773438 126.664062 258.753906 128.457031 C 258.734375 130.195312 259.097656 132.09375 260.277344 133.625 C 261.445312 135.152344 263.433594 136.367188 266.78125 136.597656 L 281.535156 165.035156 L 267.765625 183.503906 L 248.117188 150.421875 C 246.917969 143.488281 245.398438 136.527344 243.191406 129.96875 C 242.621094 128.269531 242.097656 126.371094 241.300781 124.664062 C 240.84375 123.683594 240.292969 122.761719 239.605469 121.957031 C 239.742188 121.71875 239.785156 121.429688 239.703125 121.140625 C 237.898438 114.664062 234.132812 108.960938 230.238281 103.550781 C 229.160156 102.050781 228.136719 100.539062 227.066406 99.167969 C 227.085938 99.101562 227.09375 99.035156 227.097656 98.96875 C 227.367188 94.972656 225.632812 91.648438 223.058594 88.855469 C 221.734375 87.421875 220.1875 86.128906 218.605469 84.957031 C 218.65625 84.765625 218.660156 84.558594 218.601562 84.351562 C 216.761719 78.171875 214.777344 72.007812 210.941406 66.714844 C 206.769531 60.960938 200.699219 56.378906 193.941406 53.84375 C 191.382812 50.101562 180.921875 34.792969 179.199219 32.273438 Z M 169.789062 16.894531 C 173.214844 16.882812 190.738281 16.835938 190.738281 16.835938 L 177.523438 30.902344 L 163.566406 32.816406 L 172.710938 23.105469 C 173.046875 22.75 173.101562 22.210938 172.839844 21.796875 Z M 161.210938 35.324219 L 177.167969 33.128906 C 177.167969 33.132812 177.171875 33.132812 177.171875 33.136719 C 177.171875 33.136719 186.335938 46.546875 190.59375 52.777344 C 187.769531 52.023438 184.859375 51.640625 181.953125 51.671875 C 176.875 51.730469 171.609375 52.46875 166.652344 53.546875 C 164.554688 54.003906 162.167969 55.136719 159.972656 55.308594 C 159.871094 55.226562 159.769531 55.140625 159.667969 55.0625 C 161.195312 51.890625 161.1875 48.476562 159.976562 45.578125 C 159.183594 43.679688 157.867188 41.992188 156.117188 40.734375 Z M 149.8125 3.050781 L 150.0625 2.851562 L 158.117188 2.242188 L 170.566406 22.230469 L 166.867188 26.160156 Z M 165.363281 27.757812 L 155.503906 38.234375 L 136.546875 13.488281 L 148.113281 4.386719 Z M 135.050781 5.992188 L 123.390625 15.464844 C 123.046875 15.742188 122.910156 16.207031 123.042969 16.628906 L 124.714844 21.957031 C 124.6875 22.050781 124.660156 22.140625 124.640625 22.234375 C 124.347656 23.433594 124.578125 24.703125 125.265625 25.730469 L 127.996094 29.792969 C 126.40625 29.425781 124.746094 29.132812 123.011719 28.9375 C 121.625 27.492188 115.433594 21.03125 115.433594 21.03125 L 130.175781 6.160156 Z M 126.285156 19.738281 L 125.59375 17.539062 L 133.589844 14.941406 L 133.75 16.246094 C 132.992188 16.230469 132.222656 16.40625 131.511719 16.796875 L 126.792969 19.40625 C 126.613281 19.507812 126.445312 19.617188 126.285156 19.738281 Z M 128.039062 14.472656 L 141.476562 3.558594 L 146.164062 3.171875 L 134.382812 12.441406 C 134.378906 12.445312 134.375 12.445312 134.375 12.449219 C 134.289062 12.453125 134.203125 12.472656 134.113281 12.5 Z M 71.511719 47.183594 L 72.992188 49.203125 L 70.105469 51.175781 Z M 75.390625 48.820312 L 71.207031 43.113281 C 69.839844 41.25 70.238281 38.636719 72.089844 37.257812 C 72.089844 37.257812 84.296875 28.1875 95.398438 19.933594 L 103.277344 31.34375 C 101.890625 31.84375 100.488281 32.425781 99.066406 33.09375 C 99.03125 33.109375 98.996094 33.128906 98.964844 33.148438 C 98.964844 33.148438 84.65625 41.832031 81.582031 57.273438 C 81.582031 57.273438 75.390625 48.824219 75.390625 48.820312 Z M 98.050781 17.964844 C 106.210938 11.902344 113.140625 6.753906 113.140625 6.753906 L 127.023438 6.273438 L 113.707031 19.703125 Z M 81.175781 66.359375 L 78.890625 67.871094 C 77.9375 68.5 76.65625 68.292969 75.949219 67.390625 L 68.171875 57.414062 C 67.867188 57.023438 67.738281 56.527344 67.816406 56.039062 C 67.890625 55.550781 68.167969 55.113281 68.574219 54.835938 L 74.269531 50.945312 L 80.941406 60.050781 C 81 60.128906 81.070312 60.199219 81.144531 60.261719 C 81.066406 61.054688 81.023438 61.867188 81.007812 62.695312 C 80.578125 61.339844 79.308594 60.355469 77.8125 60.355469 C 75.960938 60.355469 74.457031 61.859375 74.457031 63.710938 C 74.457031 65.5625 75.960938 67.066406 77.8125 67.066406 C 79.347656 67.066406 80.644531 66.03125 81.042969 64.621094 C 81.070312 65.191406 81.113281 65.769531 81.175781 66.359375 Z M 127.582031 99.890625 C 127.582031 99.890625 127.585938 99.886719 127.585938 99.886719 C 135.472656 96.519531 140.570312 89.433594 143.808594 82.101562 C 148.585938 71.28125 149.324219 59.992188 149.324219 59.992188 C 149.351562 59.554688 149.113281 59.144531 148.71875 58.953125 C 140.488281 54.9375 142.25 46.152344 142.25 46.152344 C 142.34375 45.691406 142.128906 45.226562 141.71875 44.996094 C 128.003906 37.296875 116.953125 35.796875 108.640625 36.742188 C 96.242188 38.148438 89.824219 44.984375 89.546875 45.289062 C 89.121094 45.730469 88.71875 46.175781 88.335938 46.621094 C 93.066406 39.449219 99.429688 35.402344 100.039062 35.023438 C 101.761719 34.21875 103.453125 33.546875 105.117188 32.992188 C 105.253906 32.976562 105.390625 32.929688 105.515625 32.859375 C 114.808594 29.867188 123.15625 30.574219 129.808594 32.492188 L 133.382812 37.816406 C 134.570312 39.585938 136.851562 40.253906 138.804688 39.40625 L 141.984375 38.023438 C 144.441406 39.59375 145.796875 40.800781 145.796875 40.800781 C 146.242188 41.199219 146.925781 41.160156 147.320312 40.71875 C 147.339844 40.695312 147.355469 40.675781 147.375 40.65625 C 152.628906 40.195312 156.472656 42.796875 157.984375 46.414062 C 159.550781 50.164062 158.578125 54.929688 154.207031 58.351562 C 153.78125 58.441406 153.4375 58.78125 153.363281 59.234375 C 153.066406 61.011719 153.160156 62.8125 153.222656 64.621094 C 153.28125 66.261719 153.320312 67.90625 152.929688 69.539062 C 149.65625 83.214844 140.640625 94.949219 127.582031 99.890625 Z M 112.644531 106.570312 C 112.523438 106.375 112.335938 106.21875 112.105469 106.128906 C 110.859375 105.660156 109.574219 104.585938 108.308594 103.347656 C 107.675781 102.726562 107.058594 102.070312 106.453125 101.410156 C 112.308594 103.828125 117.375 104.726562 122.566406 103.613281 C 139.40625 99.996094 151.125 86.355469 155.03125 70.042969 C 155.46875 68.214844 155.449219 66.378906 155.382812 64.542969 C 155.328125 63.070312 155.246094 61.601562 155.414062 60.148438 C 155.441406 60.128906 155.460938 60.113281 155.488281 60.09375 C 156.691406 59.15625 157.683594 58.136719 158.464844 57.058594 C 158.632812 57.28125 158.882812 57.4375 159.167969 57.480469 C 163.046875 61.097656 165.203125 67.105469 165.335938 72.535156 C 165.210938 72.664062 165.113281 72.824219 165.066406 73.011719 C 163.828125 77.519531 160.777344 80.777344 157.976562 84.375 C 152.722656 91.113281 142.472656 99.902344 131.835938 104.503906 C 125.199219 107.371094 118.417969 108.628906 112.644531 106.570312 Z M 88.773438 146.285156 C 88.734375 146.097656 88.703125 145.902344 88.683594 145.703125 C 88.550781 144.351562 89.25 142.5 90.167969 140.582031 C 91.679688 137.433594 93.878906 134.15625 94.921875 132.46875 C 96.96875 129.15625 99.304688 126.03125 101.347656 122.71875 C 103.722656 118.871094 106.703125 114.285156 109.886719 110.589844 C 109.777344 111.488281 109.652344 112.523438 109.527344 113.675781 C 108.171875 126.101562 105.953125 152.640625 105.585938 162.945312 C 103.074219 159.496094 99.796875 156.488281 96.394531 154.066406 C 94.890625 152.992188 92.988281 151.777344 91.417969 150.324219 C 90.1875 149.179688 89.148438 147.890625 88.792969 146.363281 C 88.785156 146.335938 88.78125 146.3125 88.773438 146.285156 Z M 82.835938 168.257812 C 85.15625 162.207031 86.554688 156.046875 88.058594 149.789062 C 88.332031 150.179688 88.636719 150.554688 88.96875 150.917969 C 90.75 152.882812 93.234375 154.464844 95.140625 155.824219 C 99.148438 158.679688 102.980469 162.375 105.445312 166.6875 L 104.949219 166.984375 C 104.441406 167.289062 104.273438 167.953125 104.578125 168.464844 L 106.269531 171.300781 C 106.277344 171.308594 106.285156 171.324219 106.292969 171.335938 L 114.078125 184.371094 C 113.773438 184.394531 113.480469 184.539062 113.285156 184.804688 C 108.351562 191.425781 102.734375 196.910156 95.703125 200.890625 C 96.460938 198.117188 96.269531 194.933594 95.480469 191.679688 C 93.976562 185.449219 90.320312 178.949219 87.652344 174.828125 C 86.667969 173.308594 85.339844 170.894531 83.71875 169.125 C 83.433594 168.8125 83.140625 168.523438 82.835938 168.257812 Z M 53.175781 183.59375 C 53.222656 183.566406 53.265625 183.535156 53.3125 183.496094 C 58.683594 178.886719 65.03125 175.761719 71.058594 172.175781 C 72.421875 171.363281 74.234375 170.175781 76.078125 169.425781 C 77.171875 168.980469 78.269531 168.683594 79.273438 168.785156 C 80.335938 168.890625 81.269531 169.648438 82.128906 170.585938 C 83.664062 172.261719 84.90625 174.5625 85.839844 176.003906 C 88.40625 179.964844 91.933594 186.203125 93.382812 192.1875 C 94.289062 195.941406 94.398438 199.59375 92.746094 202.4375 C 92.707031 202.457031 92.667969 202.472656 92.628906 202.492188 C 92.253906 202.671875 92.027344 203.042969 92.015625 203.433594 C 91.335938 204.179688 90.488281 204.742188 89.582031 205.21875 C 88.175781 205.960938 86.628906 206.503906 85.246094 207.109375 C 78.769531 209.941406 72.09375 211.832031 65.183594 213.195312 C 64.488281 207.054688 62.109375 202.28125 59.558594 197.699219 C 57.0625 193.210938 54.394531 188.921875 53.175781 183.59375 Z M 53.0625 189.996094 C 54.398438 193.039062 56.0625 195.855469 57.671875 198.75 C 60.121094 203.144531 62.433594 207.71875 63.058594 213.644531 C 60.660156 214.496094 58.058594 214.339844 55.46875 213.878906 C 53.394531 213.507812 51.324219 212.9375 49.355469 212.457031 C 50.585938 210.632812 51.175781 208.464844 51.726562 206.214844 C 51.871094 205.636719 51.515625 205.050781 50.9375 204.910156 C 50.355469 204.765625 49.773438 205.121094 49.628906 205.699219 C 49.066406 207.984375 48.542969 210.222656 47.042969 211.941406 C 47 211.933594 46.957031 211.925781 46.914062 211.917969 C 46.328125 211.808594 45.761719 212.191406 45.652344 212.777344 C 45.628906 212.914062 45.628906 213.046875 45.652344 213.171875 C 45.589844 213.210938 45.527344 213.253906 45.46875 213.292969 C 44.671875 213.804688 43.65625 214.03125 42.589844 214.128906 C 40.800781 214.285156 38.871094 214.046875 37.386719 213.820312 C 32.359375 213.058594 27.269531 212.757812 22.230469 212.226562 C 18.667969 211.851562 15 212.023438 11.679688 210.453125 C 11.039062 210.148438 10.230469 209.664062 9.792969 209.082031 C 9.695312 208.949219 9.597656 208.828125 9.609375 208.6875 C 9.621094 208.539062 9.753906 208.429688 9.9375 208.285156 C 10.21875 208.0625 10.363281 207.730469 10.351562 207.394531 C 11.742188 207.515625 13.152344 207.5 14.566406 207.445312 C 17.074219 207.339844 19.597656 207.089844 22.027344 207.265625 C 22.621094 207.308594 23.136719 206.859375 23.179688 206.265625 C 23.226562 205.671875 22.773438 205.152344 22.183594 205.109375 C 19.675781 204.929688 17.070312 205.175781 14.476562 205.285156 C 12.050781 205.382812 9.632812 205.363281 7.328125 204.648438 C 5.945312 204.222656 5.070312 203.433594 5.027344 202.585938 C 4.988281 201.824219 5.757812 201.316406 7.128906 201.128906 C 7.246094 201.113281 7.355469 201.078125 7.457031 201.03125 C 11.742188 201.941406 17.40625 202.292969 20.34375 201.828125 C 20.933594 201.734375 21.335938 201.183594 21.242188 200.59375 C 21.148438 200.003906 20.59375 199.601562 20.007812 199.691406 C 16.238281 200.289062 7.59375 199.476562 4.285156 197.792969 C 3.492188 197.386719 2.945312 197.011719 2.621094 196.636719 C 2.480469 196.476562 2.378906 196.34375 2.394531 196.203125 C 2.414062 196.054688 2.527344 195.933594 2.660156 195.808594 C 2.910156 195.5625 3.257812 195.347656 3.652344 195.152344 C 5 194.484375 6.859375 194.097656 8.027344 194.148438 C 8.121094 194.152344 8.210938 194.144531 8.296875 194.125 C 10.539062 195 12.992188 195.472656 15.285156 195.9375 C 17.941406 196.484375 20.675781 196.472656 23.347656 196.886719 C 23.9375 196.976562 24.492188 196.570312 24.582031 195.984375 C 24.671875 195.394531 24.269531 194.84375 23.679688 194.75 C 21.039062 194.34375 18.339844 194.359375 15.714844 193.824219 C 12.726562 193.210938 9.433594 192.648438 6.8125 190.984375 C 6.035156 190.492188 5.65625 189.972656 5.832031 189.460938 C 6.027344 188.878906 6.738281 188.5 7.671875 188.363281 C 10.039062 188.023438 12.539062 188.710938 14.878906 188.96875 C 20.011719 189.550781 25.480469 189.867188 30.390625 191.582031 C 30.75 191.707031 31.132812 191.632812 31.414062 191.410156 C 32.027344 192.359375 32.546875 193.136719 32.722656 193.570312 C 33.046875 194.347656 33.21875 195.261719 33.511719 196.105469 C 33.890625 197.199219 34.453125 198.179688 35.46875 198.84375 C 35.96875 199.167969 36.640625 199.027344 36.964844 198.527344 C 37.289062 198.027344 37.148438 197.359375 36.648438 197.03125 C 36.054688 196.644531 35.773438 196.035156 35.554688 195.398438 C 35.25 194.511719 35.058594 193.558594 34.722656 192.742188 C 34.277344 191.671875 31.710938 188.5 30.871094 185.855469 C 30.640625 185.132812 30.503906 184.46875 30.8125 183.976562 C 31 183.6875 31.347656 183.507812 31.855469 183.382812 C 32.421875 183.242188 32.988281 183.425781 33.515625 183.699219 C 34.171875 184.042969 34.769531 184.558594 35.242188 185.03125 C 36.640625 186.433594 37.742188 188.019531 39.082031 189.464844 C 40.984375 191.519531 43.570312 193.253906 45.035156 195.648438 C 45.34375 196.15625 46.007812 196.316406 46.519531 196.003906 C 47.027344 195.695312 47.1875 195.03125 46.878906 194.519531 C 46.515625 193.925781 46.085938 193.371094 45.617188 192.835938 C 48.171875 192.132812 50.613281 190.996094 53.0625 189.996094 Z M 120.042969 190.140625 L 108.839844 171.386719 L 114.953125 169.488281 C 117.941406 168.5625 121.175781 169.75 122.855469 172.390625 L 126.667969 178.382812 C 127.730469 180.058594 128.027344 182.113281 127.476562 184.019531 C 126.929688 185.929688 125.585938 187.507812 123.792969 188.359375 Z M 132.210938 196.140625 L 125.171875 198.734375 L 121.152344 192.003906 L 124.71875 190.3125 C 127.074219 189.195312 128.832031 187.121094 129.554688 184.617188 C 130.273438 182.117188 129.886719 179.421875 128.488281 177.226562 L 124.679688 171.230469 C 122.476562 167.769531 118.230469 166.210938 114.3125 167.425781 L 107.699219 169.480469 L 106.988281 168.285156 L 127.359375 156.070312 C 127.871094 155.765625 128.039062 155.105469 127.734375 154.589844 L 117.855469 137.960938 C 117.277344 136.988281 117.121094 135.824219 117.421875 134.738281 C 117.566406 134.207031 117.8125 133.714844 118.144531 133.289062 C 118.148438 133.28125 118.15625 133.273438 118.164062 133.265625 C 118.507812 132.828125 118.9375 132.457031 119.4375 132.183594 L 134.585938 123.910156 C 135.726562 123.285156 137.035156 123.253906 138.160156 123.714844 C 138.167969 123.714844 138.171875 123.71875 138.183594 123.722656 C 138.964844 124.046875 139.652344 124.613281 140.128906 125.386719 L 154.082031 148.152344 C 154.089844 148.167969 154.097656 148.175781 154.105469 148.1875 C 154.128906 148.253906 154.15625 148.320312 154.191406 148.386719 L 173.132812 181.070312 L 169.410156 182.4375 L 159.597656 167.101562 C 159.328125 166.679688 158.804688 166.5 158.332031 166.664062 L 132.800781 175.527344 C 132.511719 175.628906 132.277344 175.847656 132.160156 176.132812 C 132.042969 176.417969 132.050781 176.734375 132.183594 177.015625 L 139.964844 193.285156 L 133.082031 195.820312 C 133.070312 195.820312 133.0625 195.820312 133.050781 195.820312 C 132.726562 195.796875 132.421875 195.925781 132.210938 196.140625 Z M 162.152344 223.808594 C 155.222656 226.003906 149.222656 224.972656 144.570312 221.847656 C 137.566406 217.144531 133.628906 207.792969 134.019531 197.777344 L 138.582031 196.097656 C 137.0625 208.921875 145.335938 222.117188 159.558594 219.695312 C 159.6875 219.671875 159.808594 219.628906 159.914062 219.566406 C 160.671875 220.953125 161.40625 222.382812 162.152344 223.808594 Z M 230.613281 216.410156 C 221.285156 226.429688 209.671875 235.035156 196.242188 238.359375 C 190.023438 239.894531 181.171875 240.859375 175.378906 237.265625 C 171.457031 234.832031 168.757812 231.140625 166.441406 227.160156 C 164.519531 223.859375 162.859375 220.359375 161.039062 217.148438 C 163.226562 217.855469 165.503906 218.28125 167.804688 218.15625 C 178.8125 217.574219 198.59375 208.136719 208.28125 202.972656 C 213.621094 200.125 218.980469 197.226562 223.046875 192.640625 C 222.863281 195.707031 221.648438 198.488281 220.292969 201.25 C 218.621094 204.667969 216.746094 208.0625 216.03125 211.839844 C 215.722656 213.476562 215.546875 215.878906 216.050781 217.898438 C 216.433594 219.4375 217.207031 220.75 218.480469 221.515625 C 219.390625 222.058594 220.214844 222.195312 220.949219 222.074219 C 221.996094 221.902344 222.921875 221.171875 223.683594 220.003906 C 225.140625 217.765625 226.0625 213.753906 227.019531 210.972656 C 227.253906 210.289062 227.488281 209.691406 227.742188 209.234375 C 227.820312 209.09375 227.898438 208.96875 227.984375 208.863281 C 227.992188 208.855469 228 208.847656 228.007812 208.835938 C 228.070312 208.894531 228.15625 208.96875 228.214844 209.039062 C 228.507812 209.382812 228.820312 209.894531 229.171875 210.597656 C 229.996094 212.25 230.441406 214.257812 230.613281 216.410156 Z M 157.761719 215.878906 C 157.765625 215.886719 157.769531 215.894531 157.773438 215.898438 C 158.132812 216.460938 158.480469 217.035156 158.824219 217.625 C 146.257812 219.507812 139.242188 207.441406 140.769531 196.007812 C 144.855469 204.277344 148.71875 211.835938 157.761719 215.878906 Z M 220.414062 304.222656 C 228.058594 306.089844 236.425781 302.304688 242.628906 296.066406 C 248.921875 289.738281 252.914062 280.945312 251.761719 273.285156 C 256.210938 281.027344 261.507812 289.09375 268.6875 294.554688 C 270.152344 295.667969 273.875 297.359375 276.6875 299.179688 C 277.546875 299.734375 278.316406 300.300781 278.878906 300.871094 C 279.28125 301.277344 279.59375 301.65625 279.632812 302.050781 C 280.03125 306.117188 279.25 311.25 278.023438 315.105469 C 275.824219 322.023438 271.976562 329.882812 264.59375 332.480469 C 264.347656 332.566406 264.101562 332.644531 263.851562 332.71875 C 263.4375 332.558594 262.972656 332.671875 262.675781 332.988281 C 257.078125 334.011719 250.648438 331.519531 245.929688 329.058594 C 239.808594 325.875 226.203125 316.289062 222.691406 310.527344 C 221.59375 308.730469 220.957031 306.398438 220.414062 304.222656 Z M 285.625 344.207031 C 287.65625 344.738281 289.746094 345.023438 291.8125 344.449219 C 295.742188 343.359375 299.492188 340.703125 301.5 337.09375 C 303.667969 333.207031 304.5625 326.273438 303.894531 320.050781 C 303.464844 316.03125 302.378906 312.316406 300.640625 309.867188 C 301.882812 309.960938 303.515625 310.039062 304.976562 310.316406 C 305.984375 310.507812 306.910156 310.765625 307.433594 311.308594 C 308.40625 312.308594 308.609375 313.894531 308.667969 315.53125 C 308.734375 317.457031 308.535156 319.46875 308.621094 320.980469 C 308.933594 326.484375 308.722656 332.035156 308.992188 337.546875 C 309.21875 342.25 309.789062 346.941406 309.875 351.652344 C 309.921875 354.378906 310.707031 359.074219 310.519531 363.113281 C 310.410156 365.492188 310.019531 367.640625 308.710938 368.808594 C 304.566406 372.515625 298.714844 370.484375 295 367.132812 C 288.777344 361.507812 284.417969 352.699219 285.625 344.207031 Z M 281.878906 303.253906 C 283.832031 304.074219 285.378906 305.042969 287.359375 306.128906 C 289.40625 307.257812 291.910156 307.9375 294.0625 308.917969 C 294.898438 309.296875 295.910156 309.503906 296.867188 309.804688 C 297.5625 310.019531 298.238281 310.273438 298.675781 310.84375 C 300.363281 313.019531 301.34375 316.511719 301.746094 320.28125 C 302.363281 326.03125 301.613281 332.449219 299.613281 336.042969 C 297.878906 339.15625 294.625 341.425781 291.234375 342.367188 C 288.445312 343.140625 285.621094 341.988281 283.003906 341.164062 C 277.28125 339.355469 271.984375 336.601562 266.59375 334.007812 C 273.804688 330.78125 277.820312 322.871094 280.082031 315.757812 C 281.25 312.082031 282.03125 307.316406 281.878906 303.253906 Z M 310.847656 369.660156 C 312.027344 368.105469 312.558594 365.789062 312.675781 363.210938 C 312.867188 359.128906 312.085938 354.375 312.03125 351.617188 C 311.949219 346.882812 311.378906 342.171875 311.148438 337.445312 C 310.882812 331.925781 311.089844 326.367188 310.777344 320.859375 C 310.675781 319.039062 310.980469 316.496094 310.746094 314.242188 C 310.707031 313.871094 310.652344 313.507812 310.582031 313.15625 C 310.785156 313.378906 310.964844 313.621094 311.117188 313.875 C 313.574219 318.070312 313.722656 325.753906 314.339844 330.554688 C 315.472656 339.339844 317.734375 347.808594 317.164062 356.722656 C 316.78125 362.800781 317.023438 367.335938 310.847656 369.660156 Z M 248.457031 185.808594 C 247.96875 185.292969 247.460938 184.863281 246.941406 184.53125 C 243.015625 182.023438 235.902344 181.375 230.503906 183.230469 C 227.050781 184.417969 224.3125 186.609375 223.367188 189.855469 C 219.472656 185.332031 214.546875 174.925781 211.460938 165.410156 C 209.289062 158.703125 207.996094 152.441406 208.785156 149.046875 C 209.996094 143.820312 214.203125 140.183594 217.675781 136.417969 C 219.753906 134.164062 224.347656 128.234375 228.953125 124.550781 C 230.398438 123.394531 231.835938 122.460938 233.195312 121.980469 C 234.332031 121.582031 235.394531 121.496094 236.3125 122 C 237.757812 122.796875 238.660156 124.117188 239.34375 125.578125 C 240.109375 127.214844 240.597656 129.035156 241.144531 130.65625 C 243.332031 137.160156 244.835938 144.070312 246.015625 150.949219 C 246.019531 150.972656 246.023438 151 246.027344 151.023438 C 246.558594 154.113281 247.023438 157.195312 247.457031 160.234375 C 248.53125 167.722656 249.789062 178.03125 248.457031 185.808594 Z M 225.222656 191.378906 C 225.246094 191.320312 225.257812 191.261719 225.269531 191.199219 C 225.78125 188.195312 228.203125 186.304688 231.203125 185.273438 C 235.988281 183.628906 242.300781 184.132812 245.777344 186.351562 C 247.15625 187.230469 248.359375 188.96875 249.414062 191.203125 C 251.117188 194.792969 252.378906 199.628906 253.078125 204.550781 C 253.679688 208.78125 253.859375 213.078125 253.53125 216.699219 C 253.246094 216.695312 252.960938 216.804688 252.75 217.015625 C 252.53125 216.84375 252.25 216.753906 251.953125 216.789062 C 251.359375 216.859375 250.9375 217.398438 251.007812 217.988281 C 251.34375 220.808594 251.324219 224.464844 250.347656 227.542969 C 249.515625 230.183594 247.964844 232.40625 245.1875 233.074219 C 247.164062 228.25 247.429688 221.703125 247.726562 217.453125 C 247.765625 216.859375 247.320312 216.34375 246.722656 216.300781 C 246.128906 216.261719 245.613281 216.707031 245.570312 217.304688 C 245.308594 221.046875 245.117188 226.667969 243.609375 231.136719 C 242.777344 233.59375 241.5625 235.707031 239.601562 236.804688 C 238.746094 237.28125 237.753906 237.558594 236.601562 237.59375 C 240.117188 231.878906 242.925781 222.703125 242.363281 215.875 C 242.3125 215.28125 241.792969 214.835938 241.199219 214.886719 C 240.601562 214.9375 240.160156 215.457031 240.210938 216.054688 C 240.742188 222.476562 238.0625 231.105469 234.753906 236.476562 C 234.09375 237.546875 232.828125 238.824219 231.421875 239.53125 C 230.261719 240.121094 228.972656 240.328125 227.960938 239.332031 C 227.816406 239.1875 227.816406 238.976562 227.824219 238.742188 C 227.84375 238.273438 227.996094 237.734375 228.207031 237.167969 C 228.988281 235.09375 230.503906 232.734375 230.847656 231.585938 C 232.6875 225.476562 234.027344 215.492188 231.105469 209.632812 C 230.550781 208.527344 230.042969 207.792969 229.597656 207.355469 C 229.136719 206.90625 228.691406 206.695312 228.292969 206.628906 C 227.601562 206.511719 226.933594 206.757812 226.355469 207.445312 C 225.863281 208.027344 225.402344 209.03125 224.976562 210.269531 C 224.070312 212.898438 223.25 216.707031 221.871094 218.824219 C 221.496094 219.402344 221.117188 219.855469 220.601562 219.941406 C 220.296875 219.992188 219.964844 219.882812 219.589844 219.660156 C 218.800781 219.1875 218.382812 218.328125 218.148438 217.375 C 217.71875 215.664062 217.894531 213.628906 218.152344 212.242188 C 218.832031 208.652344 220.648438 205.445312 222.234375 202.199219 C 223.914062 198.765625 225.34375 195.289062 225.222656 191.378906 Z M 237.523438 242.335938 C 236.871094 241.511719 236.261719 240.648438 235.707031 239.742188 C 239.742188 239.992188 242.390625 238.09375 244.148438 235.164062 C 244.363281 235.304688 244.628906 235.367188 244.898438 235.328125 C 247.25 234.972656 249.011719 233.855469 250.300781 232.269531 C 251.679688 234.050781 253.25 235.679688 254.605469 237.417969 C 256.136719 239.378906 257.390625 241.484375 257.625 244.207031 C 257.71875 245.304688 256.945312 246.652344 255.945312 247.75 C 254.957031 248.835938 253.710938 249.71875 252.597656 249.679688 C 247.3125 249.480469 241.765625 245.285156 237.523438 242.335938 Z M 264.214844 260.71875 C 265.671875 260.25 266.980469 259.332031 268.152344 258.175781 C 270 256.347656 271.503906 253.910156 272.769531 251.9375 C 273.265625 251.167969 274.253906 249.882812 274.835938 248.625 C 275.273438 247.6875 275.46875 246.746094 275.3125 245.945312 C 275.460938 245.949219 275.609375 245.957031 275.757812 245.96875 C 276.023438 245.988281 276.285156 246.023438 276.519531 246.09375 C 276.707031 246.152344 276.886719 246.21875 276.984375 246.386719 C 276.984375 246.386719 276.988281 246.386719 276.988281 246.386719 C 276.988281 246.394531 276.988281 246.398438 276.992188 246.40625 C 277.019531 246.5625 277.082031 246.707031 277.167969 246.828125 C 277.320312 247.453125 277.144531 248.191406 276.882812 248.945312 C 276.25 250.785156 274.941406 252.691406 274.238281 253.816406 C 273.03125 255.738281 271.925781 257.433594 270.769531 258.734375 C 269.742188 259.890625 268.695312 260.722656 267.457031 261.023438 C 266.492188 261.261719 265.429688 261.171875 264.214844 260.71875 Z M 272.851562 245.730469 C 272.992188 245.914062 273.101562 246.105469 273.175781 246.300781 C 273.328125 246.710938 273.117188 247.203125 272.878906 247.71875 C 272.339844 248.878906 271.410156 250.054688 270.949219 250.769531 C 269.761719 252.621094 268.367188 254.921875 266.632812 256.636719 C 265.097656 258.15625 263.292969 259.21875 261.066406 258.808594 C 258.007812 258.246094 255.59375 255.882812 253 254.371094 C 250.796875 253.085938 248.566406 251.742188 246.421875 250.277344 C 248.441406 251.160156 250.503906 251.761719 252.519531 251.839844 C 254.148438 251.898438 256.085938 250.800781 257.542969 249.207031 C 258.984375 247.625 259.914062 245.601562 259.777344 244.019531 C 259.503906 240.847656 258.09375 238.371094 256.3125 236.089844 C 254.960938 234.359375 253.394531 232.742188 252.023438 230.96875 C 257.523438 234.121094 262.472656 238.28125 267.625 241.953125 C 268.625 242.664062 270.28125 243.550781 271.605469 244.570312 C 271.90625 244.800781 272.1875 245.03125 272.433594 245.269531 C 272.523438 245.460938 272.667969 245.621094 272.851562 245.730469 Z M 252.832031 226.566406 C 257.957031 230.640625 263.210938 234.671875 268.632812 238.332031 C 270.273438 239.445312 272.25 240.519531 273.914062 241.863281 C 274.640625 242.453125 275.308594 243.085938 275.839844 243.8125 C 275.191406 243.773438 274.523438 243.804688 273.976562 243.773438 C 273.660156 243.460938 273.304688 243.152344 272.921875 242.859375 C 271.578125 241.824219 269.894531 240.914062 268.878906 240.191406 C 263.410156 236.296875 258.160156 231.867188 252.265625 228.625 C 252.492188 227.960938 252.683594 227.273438 252.832031 226.566406 Z M 237.078125 119.964844 C 235.058594 119.019531 232.589844 119.578125 230.027344 121.144531 C 224.601562 124.457031 218.574219 132.257812 216.085938 134.953125 C 212.957031 138.351562 209.347656 141.703125 207.511719 146.019531 C 201.519531 137.445312 195.460938 125.96875 197.914062 115.195312 C 198.679688 111.828125 200.710938 108.621094 202.558594 105.730469 C 204.035156 103.414062 205.777344 101.492188 207.832031 99.671875 C 209.824219 97.910156 212.625 96.53125 215.210938 95.984375 C 219.25 95.132812 221.84375 96.585938 224.019531 98.90625 C 225.605469 100.597656 226.980469 102.722656 228.484375 104.8125 C 231.878906 109.523438 235.191406 114.449219 237.078125 119.964844 Z M 206.625 148.804688 C 205.890625 152.492188 207.136719 159.066406 209.40625 166.078125 C 212.535156 175.726562 217.558594 186.21875 221.5625 191.058594 C 217.652344 195.535156 212.4375 198.308594 207.265625 201.066406 C 197.785156 206.117188 178.460938 215.429688 167.6875 216 C 164.609375 216.164062 161.59375 215.199219 158.800781 213.976562 C 150 210.113281 146.457031 202.667969 142.507812 194.652344 L 169.320312 184.773438 C 169.332031 184.769531 169.347656 184.765625 169.359375 184.761719 L 175.132812 182.632812 C 175.175781 182.617188 175.214844 182.601562 175.253906 182.582031 L 181.589844 179.3125 L 189.785156 192.9375 C 191.621094 195.992188 195.542969 197.054688 198.667969 195.339844 C 199.230469 195.03125 201.898438 193.574219 202.464844 193.261719 C 204.03125 192.40625 205.183594 190.957031 205.667969 189.242188 C 206.148438 187.527344 205.921875 185.6875 205.039062 184.140625 L 197.828125 171.539062 L 207.324219 167.644531 C 207.628906 167.515625 207.859375 167.257812 207.953125 166.941406 C 208.042969 166.621094 207.984375 166.28125 207.789062 166.011719 L 197.476562 151.691406 C 197.582031 151.53125 197.644531 151.339844 197.65625 151.132812 C 197.742188 148.898438 198.464844 146.953125 198.960938 144.980469 C 199.242188 143.859375 199.460938 142.734375 199.5 141.554688 C 201.652344 143.925781 204.054688 146.007812 206.082031 148.453125 C 206.226562 148.628906 206.417969 148.75 206.625 148.804688 Z M 224.847656 96.679688 C 222.324219 94.28125 219.273438 92.921875 214.761719 93.871094 C 211.832031 94.492188 208.660156 96.054688 206.402344 98.054688 C 204.191406 100.007812 202.328125 102.078125 200.738281 104.566406 C 198.761719 107.664062 196.628906 111.113281 195.808594 114.714844 C 193.820312 123.445312 197.035156 132.652344 201.492188 140.546875 C 200.789062 139.789062 200.113281 139.003906 199.476562 138.167969 C 194.964844 132.226562 191.402344 125.5 187.789062 118.964844 C 187.769531 118.882812 187.734375 118.796875 187.6875 118.71875 C 182.613281 109.761719 169.996094 81.433594 167.984375 73.839844 C 172.742188 72.667969 179 72.957031 185.453125 74.078125 C 196.179688 75.941406 207.453125 80.125 213.46875 84.050781 C 216.117188 85.78125 219.15625 87.8125 221.46875 90.320312 C 223.164062 92.15625 224.464844 94.246094 224.847656 96.679688 Z M 215.972656 83.113281 C 215.523438 82.8125 215.082031 82.523438 214.652344 82.242188 C 208.460938 78.199219 196.863281 73.867188 185.824219 71.949219 C 179.046875 70.773438 172.476562 70.519531 167.464844 71.746094 C 167.171875 66.5625 165.207031 61.019531 161.851562 57.164062 C 163.636719 56.738281 165.460938 56.015625 167.109375 55.660156 C 171.929688 54.609375 177.042969 53.890625 181.980469 53.832031 C 185.644531 53.789062 189.3125 54.464844 192.796875 55.714844 C 192.84375 55.738281 192.898438 55.757812 192.949219 55.773438 C 199.40625 58.136719 205.214844 62.5 209.191406 67.984375 C 212.5 72.546875 214.347656 77.792969 215.972656 83.113281 Z M 153.664062 39.386719 C 151.628906 38.558594 149.214844 38.222656 146.496094 38.578125 C 145.957031 38.148438 145.136719 37.527344 144.058594 36.800781 C 144.546875 36.316406 144.921875 35.726562 145.140625 35.0625 C 145.539062 33.878906 145.417969 32.582031 144.804688 31.492188 L 137.496094 18.496094 C 137.125 17.835938 136.609375 17.308594 136.011719 16.929688 L 135.925781 16.234375 Z M 119.789062 28.699219 C 115.347656 28.535156 110.519531 29.050781 105.410156 30.628906 L 98.175781 20.152344 L 113.199219 21.820312 Z M 112.292969 108.734375 C 118.457031 110.777344 125.660156 109.527344 132.691406 106.488281 C 143.675781 101.738281 154.253906 92.660156 159.679688 85.699219 C 162.164062 82.515625 164.785156 79.546875 166.347656 75.867188 C 169.238281 84.789062 179.578125 108.117188 184.839844 118.011719 C 184.863281 118.113281 184.898438 118.207031 184.949219 118.300781 C 187.4375 122.753906 189.867188 127.339844 192.550781 131.746094 C 193.066406 134.296875 192.84375 136.445312 192.464844 138.5625 C 192.175781 140.167969 191.804688 141.757812 191.554688 143.464844 L 188.828125 139.679688 C 188.636719 139.414062 188.34375 139.261719 188.039062 139.234375 C 187.761719 138.910156 187.308594 138.761719 186.878906 138.902344 L 174.816406 142.773438 C 174.660156 142.820312 174.523438 142.90625 174.414062 143.007812 L 168.84375 144.734375 L 164.367188 138.761719 C 164.335938 138.71875 164.304688 138.679688 164.269531 138.644531 C 164.238281 138.578125 164.199219 138.511719 164.152344 138.453125 C 163.90625 138.125 163.5 137.964844 163.097656 138.035156 L 160.117188 138.566406 L 161.679688 134.902344 C 161.824219 134.558594 161.785156 134.164062 161.570312 133.859375 L 146.003906 111.628906 C 145.992188 111.601562 145.976562 111.578125 145.964844 111.550781 C 145.679688 111.023438 145.023438 110.828125 144.5 111.113281 L 120.957031 123.828125 C 120.769531 123.929688 120.617188 124.085938 120.515625 124.269531 L 116.390625 132.023438 C 115.910156 132.660156 115.550781 133.382812 115.335938 134.167969 C 114.882812 135.820312 115.121094 137.589844 116 139.066406 L 125.328125 154.769531 L 107.679688 165.347656 C 107.636719 158.113281 110.191406 127.496094 111.675781 113.910156 C 111.925781 111.597656 112.132812 109.796875 112.292969 108.734375 Z M 138.101562 121.425781 C 136.613281 121.054688 134.992188 121.226562 133.546875 122.015625 L 120.316406 129.242188 L 122.269531 125.574219 L 142.050781 114.890625 Z M 154.886719 145.332031 L 141.96875 124.257812 C 141.476562 123.453125 140.832031 122.796875 140.09375 122.304688 L 145.070312 114.066406 L 159.457031 134.605469 Z M 175.132812 180.210938 C 175.128906 180.203125 175.125 180.191406 175.117188 180.183594 L 156.464844 148 C 157.980469 147.132812 160.820312 145.503906 160.820312 145.503906 L 165.503906 151.46875 C 165.769531 151.804688 166.207031 151.953125 166.621094 151.847656 L 175.0625 149.703125 L 190.019531 172.539062 Z M 183.515625 178.324219 L 192.183594 173.851562 L 195.816406 172.363281 L 203.164062 185.214844 C 203.761719 186.257812 203.914062 187.496094 203.585938 188.65625 C 203.261719 189.8125 202.484375 190.789062 201.429688 191.367188 C 200.863281 191.679688 198.191406 193.136719 197.628906 193.445312 C 195.519531 194.601562 192.875 193.886719 191.636719 191.824219 Z M 195.859375 170.011719 L 191.984375 171.597656 L 177.058594 148.804688 L 187.683594 141.785156 L 205.234375 166.164062 L 195.886719 170 C 195.878906 170.003906 195.867188 170.007812 195.859375 170.011719 Z M 142 192.535156 C 141.785156 192.09375 140.460938 189.316406 138.988281 186.238281 L 163.089844 176.570312 L 167.332031 183.203125 Z M 138.054688 184.285156 C 136.3125 180.640625 134.652344 177.171875 134.652344 177.171875 L 158.234375 168.984375 L 161.90625 174.71875 Z M 157.382812 144.984375 L 159.105469 140.941406 L 161.371094 140.539062 L 160.011719 143.269531 C 159.972656 143.355469 159.941406 143.445312 159.921875 143.53125 C 159.292969 143.890625 158.289062 144.464844 157.382812 144.984375 Z M 194.992188 135.585938 C 195.601562 136.496094 196.226562 137.394531 196.867188 138.277344 C 196.875 138.359375 196.890625 138.4375 196.917969 138.515625 C 197.628906 140.714844 197.335938 142.59375 196.867188 144.453125 C 196.472656 146.007812 195.96875 147.546875 195.691406 149.210938 L 193.441406 146.085938 C 193.460938 146.011719 193.476562 145.933594 193.480469 145.855469 C 193.621094 143.332031 194.195312 141.15625 194.589844 138.941406 C 194.785156 137.847656 194.941406 136.742188 194.992188 135.585938 Z M 182.628906 142.53125 L 176.164062 146.804688 L 176.621094 144.460938 Z M 163.46875 141.164062 L 167.574219 146.636719 C 167.847656 147.003906 168.320312 147.15625 168.757812 147.023438 L 174.253906 145.320312 L 173.765625 147.804688 L 166.769531 149.582031 L 162.1875 143.75 Z M 140.023438 46.523438 C 139.765625 48.980469 139.660156 56.5 147.109375 60.550781 C 146.863281 63.117188 145.757812 72.335938 141.832031 81.226562 C 138.804688 88.078125 134.105469 94.761719 126.734375 97.902344 C 126.730469 97.902344 126.726562 97.90625 126.722656 97.910156 C 126.722656 97.910156 103.125 108.316406 88.519531 83.375 C 88.511719 83.359375 88.503906 83.347656 88.496094 83.335938 C 88.496094 83.335938 75.4375 63.136719 91.113281 46.777344 C 91.117188 46.769531 91.125 46.765625 91.132812 46.757812 C 91.132812 46.757812 97.117188 40.222656 108.882812 38.886719 C 116.746094 37.996094 127.136719 39.429688 140.023438 46.523438 Z M 192.992188 25.085938 C 191.976562 25.792969 191.425781 27.113281 191.492188 28.835938 C 191.574219 30.914062 192.566406 33.664062 194.386719 36.277344 C 196.210938 38.890625 198.445312 40.773438 200.371094 41.566406 C 201.960938 42.226562 203.390625 42.164062 204.40625 41.453125 C 205.421875 40.746094 205.976562 39.425781 205.910156 37.707031 C 205.828125 35.625 204.835938 32.878906 203.015625 30.261719 C 201.191406 27.648438 198.953125 25.769531 197.03125 24.972656 C 195.4375 24.3125 194.011719 24.378906 192.992188 25.085938 Z M 194.230469 26.859375 C 194.726562 26.511719 195.425781 26.648438 196.207031 26.96875 C 197.835938 27.640625 199.695312 29.28125 201.242188 31.5 C 202.789062 33.71875 203.679688 36.027344 203.75 37.789062 C 203.78125 38.632812 203.667969 39.332031 203.171875 39.683594 C 202.671875 40.027344 201.976562 39.894531 201.195312 39.574219 C 199.566406 38.894531 197.707031 37.261719 196.160156 35.042969 C 194.613281 32.824219 193.71875 30.511719 193.652344 28.75 C 193.617188 27.90625 193.734375 27.207031 194.230469 26.859375 Z M 136.519531 135.121094 L 128.597656 139.621094 C 127.4375 140.277344 126.59375 141.375 126.246094 142.664062 C 125.902344 143.953125 126.089844 145.324219 126.765625 146.472656 L 134.535156 159.660156 C 135.847656 161.894531 138.65625 162.742188 140.988281 161.613281 L 149.488281 157.496094 C 150.753906 156.882812 151.699219 155.761719 152.09375 154.414062 C 152.492188 153.0625 152.292969 151.609375 151.558594 150.414062 L 143.21875 136.84375 C 141.8125 134.558594 138.851562 133.796875 136.519531 135.121094 Z M 137.589844 137 C 138.90625 136.25 140.582031 136.683594 141.378906 137.972656 L 149.71875 151.542969 C 150.132812 152.222656 150.246094 153.042969 150.019531 153.808594 C 149.796875 154.570312 149.261719 155.207031 148.546875 155.550781 L 140.046875 159.667969 C 138.726562 160.308594 137.136719 159.828125 136.394531 158.5625 L 128.628906 145.375 C 128.246094 144.726562 128.140625 143.949219 128.335938 143.222656 C 128.53125 142.492188 129.007812 141.871094 129.664062 141.5 Z M 150.394531 44.402344 C 147.210938 44.402344 144.585938 47.144531 144.585938 50.574219 C 144.585938 54.003906 147.210938 56.75 150.394531 56.75 C 153.582031 56.75 156.210938 54.003906 156.210938 50.574219 C 156.210938 47.144531 153.582031 44.402344 150.394531 44.402344 Z M 150.394531 46.5625 C 152.433594 46.5625 154.046875 48.378906 154.046875 50.574219 C 154.046875 52.769531 152.433594 54.589844 150.394531 54.589844 C 148.355469 54.589844 146.742188 52.769531 146.742188 50.574219 C 146.742188 48.378906 148.355469 46.5625 150.394531 46.5625 Z M 73.257812 54.589844 C 71.40625 54.589844 69.902344 56.09375 69.902344 57.945312 C 69.902344 59.796875 71.40625 61.300781 73.257812 61.300781 C 75.109375 61.300781 76.613281 59.796875 76.613281 57.945312 C 76.613281 56.09375 75.109375 54.589844 73.257812 54.589844 Z M 73.257812 56.75 C 73.917969 56.75 74.457031 57.285156 74.457031 57.945312 C 74.457031 58.605469 73.917969 59.140625 73.257812 59.140625 C 72.597656 59.140625 72.0625 58.605469 72.0625 57.945312 C 72.0625 57.285156 72.597656 56.75 73.257812 56.75 Z M 132.558594 18.6875 C 133.640625 18.089844 135.003906 18.476562 135.613281 19.554688 L 142.921875 32.550781 C 143.234375 33.109375 143.296875 33.769531 143.09375 34.375 C 142.890625 34.976562 142.441406 35.46875 141.855469 35.722656 L 137.945312 37.421875 C 136.949219 37.855469 135.785156 37.515625 135.175781 36.613281 L 127.058594 24.523438 C 126.707031 24.003906 126.59375 23.351562 126.738281 22.738281 C 126.890625 22.125 127.285156 21.601562 127.839844 21.296875 Z M 132.761719 21.742188 C 130.910156 21.742188 129.40625 23.246094 129.40625 25.101562 C 129.40625 26.953125 130.910156 28.457031 132.761719 28.457031 C 134.613281 28.457031 136.117188 26.953125 136.117188 25.101562 C 136.117188 23.246094 134.613281 21.742188 132.761719 21.742188 Z M 132.761719 23.90625 C 133.421875 23.90625 133.957031 24.441406 133.957031 25.101562 C 133.957031 25.761719 133.421875 26.296875 132.761719 26.296875 C 132.101562 26.296875 131.566406 25.761719 131.566406 25.101562 C 131.566406 24.441406 132.101562 23.90625 132.761719 23.90625 Z M 137.316406 28.671875 C 135.460938 28.671875 133.957031 30.175781 133.957031 32.027344 C 133.957031 33.878906 135.460938 35.382812 137.316406 35.382812 C 139.167969 35.382812 140.671875 33.878906 140.671875 32.027344 C 140.671875 30.175781 139.167969 28.671875 137.316406 28.671875 Z M 137.316406 30.832031 C 137.972656 30.832031 138.507812 31.367188 138.507812 32.027344 C 138.507812 32.6875 137.972656 33.222656 137.316406 33.222656 C 136.652344 33.222656 136.117188 32.6875 136.117188 32.027344 C 136.117188 31.367188 136.652344 30.832031 137.316406 30.832031 Z M 77.8125 62.515625 C 78.472656 62.515625 79.003906 63.050781 79.003906 63.710938 C 79.003906 64.371094 78.472656 64.910156 77.8125 64.910156 C 77.152344 64.910156 76.613281 64.371094 76.613281 63.710938 C 76.613281 63.050781 77.152344 62.515625 77.8125 62.515625 Z M 194.996094 182.152344 C 192.3125 182.152344 190.125 184.355469 190.125 187.070312 C 190.125 189.785156 192.3125 191.984375 194.996094 191.984375 C 197.683594 191.984375 199.871094 189.785156 199.871094 187.070312 C 199.871094 184.355469 197.683594 182.152344 194.996094 182.152344 Z M 194.996094 184.3125 C 196.496094 184.3125 197.710938 185.550781 197.710938 187.070312 C 197.710938 188.585938 196.496094 189.824219 194.996094 189.824219 C 193.5 189.824219 192.285156 188.585938 192.285156 187.070312 C 192.285156 185.550781 193.5 184.3125 194.996094 184.3125 Z M 194.996094 184.3125 " fill-opacity="1" fill-rule="evenodd"/></svg>